<svg xmlns="http://www.w3.org/2000/svg" width="224.139" height="152.741" viewBox="0 0 224.139 152.741"><g data-name="Group 66829"><g data-name="Group 66758"><path data-name="Rectangle 5587" transform="translate(62.936 28.493)" style="fill:#fff" d="M0 0h130.312v91.588H0z"></path><path data-name="Path 100945" d="M676.351 444.073H544.87v-92.757h131.481zM546.039 442.9h129.143v-90.415H546.039z" transform="translate(-482.519 -323.408)" style="fill:#f5b3a5"></path></g><g data-name="Group 66759"><path data-name="Rectangle 5588" style="fill:#2e2e76" d="M0 0h23.278v.974H0z" transform="translate(128.418 92.4)"></path></g><g data-name="Group 66760"><path data-name="Rectangle 5589" style="fill:#2e2e76" d="M0 0h38.506v.974H0z" transform="translate(128.418 97.186)"></path></g><g data-name="Group 66761"><path data-name="Rectangle 5590" style="fill:#2e2e76" d="M0 0h38.506v.974H0z" transform="translate(128.418 101.972)"></path></g><g data-name="Group 66762"><path data-name="Rectangle 5591" style="fill:#2e2e76" d="M0 0h38.506v.974H0z" transform="translate(128.418 106.976)"></path></g><g data-name="Group 66768"><g data-name="Group 66763"><path data-name="Rectangle 5592" transform="translate(108.676 40.431)" style="fill:#fff" d="M0 0h15.011v13.27H0z"></path><path data-name="Path 100946" d="M795.761 427.015h-16.18v-14.44h16.18zm-15.011-1.169h13.842v-12.1H780.75z" transform="translate(-671.49 -372.729)" style="fill:#f5b3a5"></path></g><g data-name="Group 66767"><g data-name="Group 66764"><path data-name="Rectangle 5593" style="fill:#2e2e76" d="M0 0h9.572v.974H0z" transform="translate(111.395 43.751)"></path></g><g data-name="Group 66765"><path data-name="Rectangle 5594" style="fill:#2e2e76" d="M0 0h9.572v.974H0z" transform="translate(111.395 46.579)"></path></g><g data-name="Group 66766"><path data-name="Rectangle 5595" style="fill:#2e2e76" d="M0 0h9.572v.974H0z" transform="translate(111.395 49.407)"></path></g></g></g><g data-name="Group 66769"><path data-name="Path 100947" d="m653.5 517.162-11.88-10.98.661-.715 11.183 10.339 13-13.213 13.974 8.775 14.309-20.075.793.566-14.84 20.822-14.089-8.847z" transform="translate(-560.415 -436.106)" style="fill:#2e2e76"></path></g><g data-name="Group 66770" transform="translate(79.796 67.543)"><circle data-name="Ellipse 2915" cx="2.393" cy="2.393" r="2.393" style="fill:#2563f6"></circle></g><g data-name="Group 66771" transform="translate(90.673 77.985)"><circle data-name="Ellipse 2916" cx="2.393" cy="2.393" r="2.393" style="fill:#2563f6"></circle></g><g data-name="Group 66772" transform="translate(103.164 64.588)"><circle data-name="Ellipse 2917" cx="2.393" cy="2.393" r="2.393" transform="rotate(-74.16 3.047 2.303)" style="fill:#2563f6"></circle></g><g data-name="Group 66773" transform="translate(117.087 72.637)"><circle data-name="Ellipse 2918" cx="2.393" cy="2.393" r="2.393" transform="rotate(-19.864 4.643 .813)" style="fill:#2563f6"></circle></g><g data-name="Group 66774"><path data-name="Rectangle 5596" style="fill:#2e2e76" d="M0 0h23.278v.974H0z" transform="translate(79.252 92.4)"></path></g><g data-name="Group 66775"><path data-name="Rectangle 5597" style="fill:#2e2e76" d="M0 0h38.506v.974H0z" transform="translate(79.252 97.186)"></path></g><g data-name="Group 66776"><path data-name="Rectangle 5598" style="fill:#2e2e76" d="M0 0h38.506v.974H0z" transform="translate(79.252 101.972)"></path></g><g data-name="Group 66777"><path data-name="Rectangle 5599" style="fill:#2e2e76" d="M0 0h38.506v.974H0z" transform="translate(79.252 106.976)"></path></g><g data-name="Chart"><g data-name="Group 66778"><path data-name="Rectangle 5600" transform="translate(137.882 .585)" style="fill:#fff" d="M0 0h40.79v36.035H0z"></path><path data-name="Path 100948" d="M971.41 245.313h-41.96v-37.2h41.96zm-40.79-1.169h39.62v-34.866h-39.621z" transform="translate(-792.153 -208.109)" style="fill:#f5b3a5"></path></g><g data-name="Group 66787"><g data-name="Group 66779"><path data-name="Rectangle 5601" style="fill:#89efd7" d="M0 0h4.207v23.775H0z" transform="translate(143.552 7.149)"></path></g><g data-name="Group 66780"><path data-name="Rectangle 5602" style="fill:#2563f6" d="M0 0h4.207v7.985H0z" transform="translate(143.552 22.94)"></path></g><g data-name="Group 66781"><path data-name="Rectangle 5603" style="fill:#89efd7" d="M0 0h4.207v23.775H0z" transform="translate(151.966 7.149)"></path></g><g data-name="Group 66782"><path data-name="Rectangle 5604" style="fill:#2563f6" d="M0 0h4.207v13.474H0z" transform="translate(151.966 17.45)"></path></g><g data-name="Group 66783"><path data-name="Rectangle 5605" style="fill:#89efd7" d="M0 0h4.207v23.775H0z" transform="translate(160.38 7.149)"></path></g><g data-name="Group 66784"><path data-name="Rectangle 5606" style="fill:#2563f6" d="M0 0h4.207v11.852H0z" transform="translate(160.38 19.072)"></path></g><g data-name="Group 66785"><path data-name="Rectangle 5607" style="fill:#89efd7" d="M0 0h4.207v23.775H0z" transform="translate(168.795 7.149)"></path></g><g data-name="Group 66786"><path data-name="Rectangle 5608" style="fill:#2563f6" d="M0 0h4.207v17.466H0z" transform="translate(168.795 13.458)"></path></g></g></g><g data-name="Chart"><g data-name="Group 66788"><path data-name="Rectangle 5609" transform="translate(43.574 7.825)" style="fill:#fff" d="M0 0h52.429v35.025H0z"></path><path data-name="Path 100949" d="M499.114 281.458h-53.6v-36.195h53.6zm-52.429-1.169h51.26v-33.857h-51.26z" transform="translate(-402.526 -238.023)" style="fill:#f5b3a5"></path></g><g data-name="Group 66789"><path data-name="Path 100950" d="M486.28 316.365c-3.642 0-5.764-3.4-6.936-5.272-2.1-3.363-3.6-3.969-6.358-4.123-3.566-.2-7.343 6.43-7.38 6.5l-.849-.478c.166-.3 4.114-7.222 8.283-6.992 3 .166 4.827.894 7.13 4.579 1.568 2.509 3.508 5.154 6.709 4.778l.06-.007.06.008c.046 0 5 .459 9.727-8.874l.221-.442c1.139-2.294 3.046-6.134 7.828-6.134l.072.005a8.3 8.3 0 0 1 6.258 5.1l-.914.337a7.43 7.43 0 0 0-5.458-4.467c-4.148.022-5.812 3.373-6.914 5.593-.078.156-.152.307-.225.449-4.834 9.539-9.982 9.462-10.655 9.407a6.089 6.089 0 0 1-.659.033z" transform="translate(-418.017 -282.017)" style="fill:#2e2e76"></path></g><g data-name="Group 66790" transform="translate(53.798 22.618)"><circle data-name="Ellipse 2919" cx="1.958" cy="1.958" r="1.958" style="fill:#2563f6"></circle></g><g data-name="Group 66791" transform="translate(67.069 31.755)"><circle data-name="Ellipse 2920" cx="1.958" cy="1.958" r="1.958" style="fill:#f5b3a5"></circle></g><g data-name="Group 66792" transform="translate(84.473 16.744)"><circle data-name="Ellipse 2921" cx="1.958" cy="1.958" r="1.958" style="fill:#89efd7"></circle></g></g><g><g data-name="Group 66793"><path data-name="Path 100951" d="M269.08 884.55s3.118 6.626 25.529 6.236c0 0 13.836.974 19.293-7.8l-2.144-7.6-39.95.974z" transform="translate(-260.474 -745.354)" style="fill:#f5b3a5"></path></g><g data-name="Group 66796"><g data-name="Group 66794"><path data-name="Path 100952" d="m379.216 546.55-.751-11.531s9.834.316 1.427-15.865l-13.38 5.246 2.607 9.88-.78 12.36z" transform="translate(-338.919 -458.539)" style="fill:#fff"></path><path data-name="Path 100953" d="m365.416 544.592.808-12.8-2.7-10.224 14.193-5.559.2.389c3.465 6.669 4.331 11.464 2.575 14.254a5.178 5.178 0 0 1-3.916 2.3l.752 11.552zm-.726-22.436 2.516 9.537-.752 11.916 9.839-.077-.752-11.552.537.017a4.342 4.342 0 0 0 3.6-1.877c1.048-1.675 1.463-5.268-2.42-12.887z" transform="translate(-336.516 -456.004)" style="fill:#2e2e76"></path></g><g data-name="Group 66795"><path data-name="Path 100954" d="M324.575 490.863s-1.478-2.457-2.976-.68c-.636.755-.561 2.727 1.99 3.413 0 0 .7 4.43-3.765 5.159 0 0-6.013-5.286-4.5-11.835 0 0-7.6 2.455-9.328-4.492a5.814 5.814 0 0 1 5.182-6.862c2.283-.336 6.555.514 7 6.019 0 0 9.316-6.1 14.35 3.672-.006-.002-3.164 5.11-7.953 5.606z" transform="translate(-290.097 -423.393)" style="fill:#2e2e76"></path></g></g><g data-name="Group 66797"><path data-name="Path 100955" d="m319.759 880.114.047 21.32h-39.859l3.046-20.45z" transform="translate(-269.223 -749.156)" style="fill:#2e2e76"></path></g><g data-name="Group 66798"><path data-name="Path 100956" d="M512.424 741.331s-.974-4.482-17.344-2.339v6.041l13.836.39z" transform="translate(-442.432 -635.069)" style="fill:#2e2e76"></path></g><g data-name="Group 66799"><path data-name="Path 100957" d="m524.07 730.253 4.536-12.335-8.434-.527-4.092 11.109z" transform="translate(-459.34 -618.144)" style="fill:#fff"></path><path data-name="Path 100958" d="m521.694 728.718-8.951-1.965 4.411-11.973 9.448.59zm-7.65-2.677 7.029 1.543 4.163-11.323-7.419-.463z" transform="translate(-456.653 -616.042)" style="fill:#2e2e76"></path></g><g data-name="Group 66800"><path data-name="Path 100959" d="M254.113 611.958s11.471 9.25 11.036.766l11.266 5.548-.2 11.881.377 20.53 1.676 20.263s-7.332-3.558-21.558-3.948a44.685 44.685 0 0 0-23.192 5.507l2.085-12.482s-17.478 8.339-7.734-19.723l6.568-17.847a12.232 12.232 0 0 1 8.451-7.627z" transform="translate(-224.919 -533.258)" style="fill:#2563f6"></path></g><g data-name="Group 66801"><path data-name="Path 100960" d="M362.08 729.391s9.354 2.533 7.6 11.5c0 0-2.923.195-6.23-5.634a17.9 17.9 0 0 1-1.37-5.866z" transform="translate(-335.351 -627.806)" style="fill:#2e2e76"></path></g><g data-name="Group 66802"><path data-name="Path 100961" d="M486.131 760.979s6.309 4.569 10.007-2.175 8.555-14.892 8.555-14.892a9.721 9.721 0 0 1-8.964 1.949c-2.459-.594-10.251-4.243-10.251-4.243z" transform="translate(-434.701 -637.649)" style="fill:#2563f6"></path></g><g data-name="Group 66803"><path data-name="Path 100962" d="m419.954 678.662-8.634-8.9a1.088 1.088 0 0 0-1.538-.023 1.088 1.088 0 0 0-.024 1.538l8.634 8.9z" transform="translate(-373.491 -579.53)" style="fill:#fff"></path><path data-name="Path 100963" d="M416.369 678.852 407.4 669.6a1.575 1.575 0 1 1 2.261-2.193l8.973 9.25zm-7.842-10.952a.6.6 0 0 0-.431 1.019l8.294 8.551.862-.836-8.294-8.551a.6.6 0 0 0-.422-.182z" transform="translate(-371.478 -577.517)" style="fill:#2e2e76"></path></g><g data-name="Group 66804"><path data-name="Path 100964" d="M365.9 702.442a9.227 9.227 0 0 1-2.149-4.055c-.522-2.152-.768-3.795-.768-3.795l7.208-6a4.678 4.678 0 0 1 2.288-1.03l11.548-1.761-3.481 11.312a17.957 17.957 0 0 1-8.267 0z" transform="translate(-336.076 -592.709)" style="fill:#fff"></path><path data-name="Path 100965" d="m363.713 700.627-.315-.312a9.661 9.661 0 0 1-2.279-4.286c-.521-2.148-.766-3.769-.777-3.838l-.041-.271 7.418-6.177a5.164 5.164 0 0 1 2.526-1.137l12.316-1.879-3.787 12.309-.257.071a18.317 18.317 0 0 1-8.273.062zm-2.364-8.311c.091.548.327 1.879.717 3.483a9.074 9.074 0 0 0 1.728 3.492l6.2-5.184.24.06a17.739 17.739 0 0 0 7.764.065l3.171-10.306-10.781 1.644a4.192 4.192 0 0 0-2.05.922z" transform="translate(-333.918 -590.235)" style="fill:#2e2e76"></path></g><g data-name="Group 66805"><path data-name="Path 100966" d="M440.344 637.8h-20.807a1.169 1.169 0 0 0-1.106.791l-10.948 32.034a1.169 1.169 0 0 0 1.106 1.547H429.4a1.169 1.169 0 0 0 1.107-.791l10.948-32.034a1.169 1.169 0 0 0-1.111-1.547z" transform="translate(-371.853 -554.061)" style="fill:#fff"></path><path data-name="Path 100967" d="M427.378 670.644h-20.806a1.656 1.656 0 0 1-1.572-2.192l10.948-32.034a1.656 1.656 0 0 1 1.567-1.121h20.807a1.656 1.656 0 0 1 1.567 2.192l-10.948 32.034a1.656 1.656 0 0 1-1.563 1.121zm-9.858-34.373a.682.682 0 0 0-.645.461l-10.949 32.034a.682.682 0 0 0 .645.9h20.806a.682.682 0 0 0 .645-.461l10.948-32.034a.682.682 0 0 0-.645-.9z" transform="translate(-369.836 -552.048)" style="fill:#2e2e76"></path></g><g data-name="Group 66806"><path data-name="Path 100968" d="M449.344 637.8h-20.807a1.169 1.169 0 0 0-1.106.791l-10.948 32.034a1.169 1.169 0 0 0 1.106 1.547H438.4a1.169 1.169 0 0 0 1.107-.791l10.948-32.034a1.169 1.169 0 0 0-1.111-1.547z" transform="translate(-379.1 -554.061)" style="fill:#fff"></path><path data-name="Path 100969" d="M436.378 670.644h-20.806a1.656 1.656 0 0 1-1.572-2.192l10.948-32.034a1.656 1.656 0 0 1 1.567-1.121h20.807a1.656 1.656 0 0 1 1.567 2.192l-10.948 32.034a1.656 1.656 0 0 1-1.563 1.121zm-9.858-34.373a.682.682 0 0 0-.645.461l-10.949 32.034a.682.682 0 0 0 .645.9h20.806a.682.682 0 0 0 .645-.461l10.948-32.034a.682.682 0 0 0-.645-.9z" transform="translate(-377.083 -552.048)" style="fill:#2e2e76"></path></g><g data-name="Group 66807"><path data-name="Path 100970" d="m539.451 686.04-1.394 3.588-4.47.04a3.505 3.505 0 0 0-3.489 3.273 5.522 5.522 0 0 0 .6 2.95c1.031 1.915 3.916 2.393 4.786 2.393s7.665-6.976 3.967-12.244z" transform="translate(-470.618 -592.903)" style="fill:#fff"></path><path data-name="Path 100971" d="M533.476 694.537c-.8 0-4.031-.45-5.215-2.649a5.973 5.973 0 0 1-.662-3.208 3.992 3.992 0 0 1 3.971-3.734l4.14-.037 1.6-4.129.523.745c2.016 2.871 1.092 6.064-.037 8.236-1.31 2.527-3.509 4.776-4.32 4.776zm4.052-11.616-1.148 2.956-4.8.043a3.015 3.015 0 0 0-3.007 2.813 5.02 5.02 0 0 0 .547 2.693c.927 1.721 3.609 2.121 4.316 2.136a12.6 12.6 0 0 0 4.18-5.831 6.277 6.277 0 0 0-.089-4.81z" transform="translate(-468.605 -588.668)" style="fill:#2e2e76"></path></g><g data-name="Group 66808"><path data-name="Path 100972" d="m279.295 738.3-.5-.835 21.959-13.186a14.716 14.716 0 0 1-4.4-4.868 17.2 17.2 0 0 1-1.609-5.822l-12.779 7.948 6.164-12.822.878.422-4.713 9.8 11.292-7.023.054.81a18.135 18.135 0 0 0 1.565 6.21 13.558 13.558 0 0 0 4.709 4.925l.745.408-.727.437z" transform="translate(-268.294 -611.161)" style="fill:#2e2e76"></path></g><g data-name="Group 66809"><path data-name="Rectangle 5610" transform="rotate(-73.968 118.433 52.936)" style="fill:#fff" d="M0 0h13.355v.974H0z"></path></g><g data-name="Group 66810"><path data-name="Path 100973" d="M535.882 712.318h-.026c-3.047-.2-4.231-1.491-4.28-1.546a.39.39 0 0 1 .579-.522 5.8 5.8 0 0 0 3.752 1.29.39.39 0 0 1-.026.779z" transform="translate(-471.736 -612.292)" style="fill:#2e2e76"></path></g><g data-name="Group 66811"><path data-name="Path 100974" d="M533.738 722.335a10.655 10.655 0 0 1-5.475-1.477.39.39 0 0 1 .429-.651 10.056 10.056 0 0 0 5.046 1.348.39.39 0 0 1 0 .78z" transform="translate(-469.008 -620.36)" style="fill:#2e2e76"></path></g><g data-name="Group 66812"><path data-name="Path 100975" d="M534.367 732.782h-.043a11.386 11.386 0 0 1-3.809-1.355.39.39 0 0 1 .393-.673 10.778 10.778 0 0 0 3.5 1.254.39.39 0 0 1-.043.777z" transform="translate(-470.805 -628.858)" style="fill:#2e2e76"></path></g></g><g><g data-name="Group 66815"><g data-name="Group 66813"><path data-name="Path 100976" d="m1176.612 533.338-.922-13.73-1.444-11.826-11.776.469s-6.985 17.15 3.611 15.878l-.163 7.643z" transform="translate(-977.943 -449.383)" style="fill:#fff"></path><path data-name="Path 100977" d="m1175.135 531.823-11.718-1.714.161-7.527a5.032 5.032 0 0 1-4.635-1.754c-3.206-4.2.9-14.411 1.072-14.844l.119-.291 12.538-.5 1.5 12.3zm-10.725-2.554 9.672 1.415-.881-13.114-1.388-11.367-11.009.439c-.639 1.682-3.68 10.2-1.086 13.6.854 1.119 2.3 1.566 4.3 1.326l.557-.067z" transform="translate(-975.94 -447.299)" style="fill:#2e2e76"></path></g><g data-name="Group 66814"><path data-name="Path 100978" d="M1147.927 483.064c.1-2.328 3.5-2.392 3.5-2.392-1.117-.332-1.421-.979-1.349-1.474.407-2.811 5.967-.586 5.967-.586-1.08-1.179.627-1.387.627-1.387 2.077-.081 5.658 1.592 8.132 2.907.862.083 11.67 1.437 1.752 16.767 0 0-5.992 1.151-6.013-4.791 0 0 1.876-2.835-.737-3.5a1.316 1.316 0 0 0-1.348.465 6.009 6.009 0 0 0-.822 1.353.652.652 0 0 1-.629.4.651.651 0 0 1-.622-.679l.1-2.342c-4.745-.489-8.631-3.095-8.558-4.741z" transform="translate(-968.053 -424.778)" style="fill:#2e2e76"></path></g></g><g data-name="Group 66816"><path data-name="Path 100979" d="M1088.18 856.5s1.305 5.656 25.888 7.614c0 0 15.664.87 19.362-4.351l-4.133-8.7-38.506-1.088z" transform="translate(-919.95 -724.889)" style="fill:#2563f6"></path></g><g data-name="Group 66817"><path data-name="Path 100980" d="m1134.69 855.554.047 26.106h-39.858l3.046-25.236z" transform="translate(-925.343 -729.382)" style="fill:#2e2e76"></path></g><g data-name="Group 66818"><path data-name="Rectangle 5611" transform="rotate(-73.968 197.84 -52.5)" style="fill:#fff" d="M0 0h13.355v.974H0z"></path></g><g data-name="Group 66819"><path data-name="Path 100981" d="M957.335 603.5s.925-6.524 10.474-7.108l2.842 5.69-9.01 6.617z" transform="translate(-814.604 -520.724)" style="fill:#2e2e76"></path></g><g data-name="Group 66820"><path data-name="Path 100982" d="M935.581 504.869a2.241 2.241 0 0 1-3.143.6L912.114 491.4l-.027-.039-2.73-3.754a.277.277 0 0 1 .3-.431l4.681 1.245h.014l20.585 13.329a2.241 2.241 0 0 1 .644 3.119z" transform="translate(-775.932 -432.78)" style="fill:#2563f6"></path></g><g data-name="Group 66821"><path data-name="Path 100983" d="M963.416 531.157s-2.646 3.451-6.672 8.229l-4.064-7.08-2.358-4.108-5.212-6.792c-.818-5.62 4.143-9.267 4.143-9.267l-1.661-2.921c-2.738-2.89-1.215-4.2-1.215-4.2l7.179 5.221 1.449 5.73 1.814 1.313-.091 6.146 2.4 2.771z" transform="translate(-804.688 -447.161)" style="fill:#fff"></path><path data-name="Path 100984" d="m954.648 537.669-6.748-11.763-5.27-6.867-.018-.126c-.731-5.024 2.845-8.487 4-9.458l-1.427-2.509a5.061 5.061 0 0 1-1.727-3.491 1.953 1.953 0 0 1 .589-1.366l.292-.251 7.633 5.551 1.449 5.73 1.876 1.357-.092 6.213 6.827 7.884-.242.315c-.027.034-2.7 3.515-6.686 8.247zm-11.094-19.02 5.17 6.743 6.075 10.583a265.56 265.56 0 0 0 5.967-7.365l-6.549-7.563.09-6.078-1.753-1.268-1.449-5.731-6.618-4.813a1.32 1.32 0 0 0-.066.385c-.015.528.234 1.438 1.5 2.777l.041.043 1.9 3.349-.349.257c-.038.032-4.633 3.495-3.958 8.681z" transform="translate(-802.668 -444.598)" style="fill:#2e2e76"></path></g><g data-name="Group 66822"><path data-name="Path 100985" d="m1014.586 598.73 7.99 5.846s17.928 37.221 4.482 38l.838 13.021s-6.321-5.332-21.755-6.091a69.759 69.759 0 0 0-23.5 2.828l4.134-25.888-4.159 2.377a6.61 6.61 0 0 1-8.5-1.681L957.1 603.477s4.325.429 7.206-1.629a8.087 8.087 0 0 0 3.313-5.457l12.632 13.957 19.912-11.618z" transform="translate(-814.416 -520.724)" style="fill:#89efd7"></path></g><g data-name="Group 66823"><path data-name="Rectangle 5612" transform="rotate(-8.436 780.373 -1366.158)" style="fill:#2e2e76" d="M0 0h.974v22.465H0z"></path></g><g data-name="Group 66824"><path data-name="Path 100986" d="M959.047 549.437a.485.485 0 0 1-.322-.122l-1.215-1.072a.487.487 0 1 1 .644-.731l1.215 1.072a.487.487 0 0 1-.323.853z" transform="translate(-814.613 -481.273)" style="fill:#2e2e76"></path></g><g data-name="Group 66825"><path data-name="Path 100987" d="M951.745 559.21a.485.485 0 0 1-.321-.12l-1.288-1.127a.487.487 0 0 1 .642-.733l1.288 1.127a.487.487 0 0 1-.321.854z" transform="translate(-808.674 -489.096)" style="fill:#2e2e76"></path></g><g data-name="Group 66826"><path data-name="Path 100988" d="M946.4 570.161a.389.389 0 0 1-.231-.076l-.986-.728a.39.39 0 1 1 .463-.627l.986.728a.39.39 0 0 1-.232.7z" transform="translate(-804.689 -498.392)" style="fill:#2e2e76"></path></g><g data-name="Group 66827"><path data-name="Rectangle 5613" transform="rotate(-25.585 319.381 -321.654)" style="fill:#2e2e76" d="M0 0h14.388v.974H0z"></path></g></g><g><g data-name="Group 66828"><path data-name="Rectangle 5614" style="fill:#6e6e6e" d="M0 0h224.108v.974H0z" transform="translate(.032 151.766)"></path></g></g></g></svg>