<svg xmlns="http://www.w3.org/2000/svg" width="260.424" height="150" viewBox="0 0 260.424 150"><g data-name="Group 69281"><g data-name="Group 69282"><path data-name="Rectangle 5720" transform="translate(133.297 1.23)" style="fill:#fff" d="M0 0h93.703v79.768H0z"></path><path data-name="Path 109820" d="M906.977 318.248h-94.933v-81h94.933zm-93.7-1.23h92.472V238.48h-92.475z" transform="translate(-679.362 -236.635)" style="fill:#f5b3a5"></path></g><g data-name="Group 69307"><g data-name="Group 69283"><path data-name="Path 109821" d="M949.557 337.288a9.885 9.885 0 1 1-9.439-6.946h.021v-11.92h-.021a21.8 21.8 0 1 0 21.8 21.8 22.132 22.132 0 0 0-.2-2.939z" transform="translate(-763.84 -301.162)" style="fill:#fff"></path><path data-name="Path 109822" d="M938.131 360.556a22.317 22.317 0 0 1 0-44.634h.53v12.941h-.534a9.371 9.371 0 1 0 8.95 6.586l-.208-.665h13.315l.059.445a22.722 22.722 0 0 1 .2 3.007 22.317 22.317 0 0 1-22.317 22.317zm-.492-43.6a21.292 21.292 0 1 0 21.784 21.286 21.679 21.679 0 0 0-.137-2.426h-11.044a10.4 10.4 0 1 1-10.6-7.96z" transform="translate(-761.853 -299.175)" style="fill:#2e2e76"></path></g><g data-name="Group 69286"><g data-name="Group 69284"><path data-name="Path 109823" d="M952.85 362.453a9.505 9.505 0 0 0 9.492 9.495v6.576a16.071 16.071 0 0 1 0-32.141v6.576a9.506 9.506 0 0 0-9.492 9.494z" transform="translate(-786.067 -323.389)" style="fill:#2a69ea"></path></g><g data-name="Group 69285"><path data-name="Path 109824" d="M960.867 377.048h-.513a16.583 16.583 0 0 1 0-33.167h.513v7.6h-.512a8.982 8.982 0 0 0 0 17.964h.512zm-1.025-32.133a15.558 15.558 0 0 0 0 31.1v-5.556a10.007 10.007 0 0 1 0-19.988z" transform="translate(-784.08 -321.401)" style="fill:#2e2e76"></path></g></g><g data-name="Group 69289"><g data-name="Group 69287"><path data-name="Path 109825" d="M1040.408 432.182a16.092 16.092 0 0 1-15.776 13.011v-6.577a9.506 9.506 0 0 0 9.426-8.367z" transform="translate(-848.354 -390.058)" style="fill:#89efd7"></path></g><g data-name="Group 69288"><path data-name="Path 109826" d="M1022.645 443.113h-.513v-7.603h.513a8.981 8.981 0 0 0 8.922-7.915l.072-.608 7.378 2.246-.088.453a16.6 16.6 0 0 1-16.284 13.427zm.508-6.59v5.556a15.578 15.578 0 0 0 14.67-12.136l-5.333-1.623a10.008 10.008 0 0 1-9.337 8.203z" transform="translate(-846.367 -387.465)" style="fill:#2e2e76"></path></g></g><g data-name="Group 69290"><path data-name="Path 109827" d="M1068.043 382.837a15.963 15.963 0 0 1-.294 3.06l-6.35-1.933a9.489 9.489 0 0 0-2.378-7.48l4.831-4.459a16.006 16.006 0 0 1 4.191 10.812z" transform="translate(-875.695 -343.773)" style="fill:#f5b3a5"></path><path data-name="Path 109828" d="m1065.352 383.736-7.3-2.223.051-.427a8.976 8.976 0 0 0-2.249-7.075l-.34-.376 5.582-5.153.348.381a16.568 16.568 0 0 1 4.021 14.315zm-6.194-2.957 5.395 1.642a15.547 15.547 0 0 0-3.53-12.48l-4.083 3.769a9.976 9.976 0 0 1 2.246 6.31c.001.254-.008.509-.027.76z" transform="translate(-872.903 -340.957)" style="fill:#2e2e76"></path></g><g data-name="Group 69291"><path data-name="Path 109829" d="M898.042 346.347h-8.457v-16.1h1.025v15.072h7.432z" transform="translate(-741.003 -310.565)" style="fill:#2e2e76"></path></g><g data-name="Group 69292"><path data-name="Path 109830" d="M1080.284 345.654h-1.025v-12.9h14.506v1.025h-13.481z" transform="translate(-891.782 -312.552)" style="fill:#2e2e76"></path></g><g data-name="Group 69293"><path data-name="Rectangle 5721" style="fill:#2e2e76" d="M0 0h5.338v1.025H0z" transform="translate(206.047 16.624)"></path></g><g data-name="Group 69294"><path data-name="Rectangle 5722" style="fill:#2e2e76" d="M0 0h10.676v1.025H0z" transform="translate(206.047 20.183)"></path></g><g data-name="Group 69295"><path data-name="Rectangle 5723" style="fill:#2e2e76" d="M0 0h10.676v1.025H0z" transform="translate(206.047 23.742)"></path></g><g data-name="Group 69296"><path data-name="Rectangle 5724" style="fill:#2e2e76" d="M0 0h5.338v1.025H0z" transform="translate(148.995 66.33)"></path></g><g data-name="Group 69297"><path data-name="Rectangle 5725" style="fill:#2e2e76" d="M0 0h10.676v1.025H0z" transform="translate(148.995 69.888)"></path></g><g data-name="Group 69298"><path data-name="Rectangle 5726" style="fill:#2e2e76" d="M0 0h10.676v1.025H0z" transform="translate(148.995 73.447)"></path></g><g data-name="Group 69299"><path data-name="Rectangle 5727" style="fill:#2e2e76" d="M0 0h5.338v1.025H0z" transform="translate(143.757 8.789)"></path></g><g data-name="Group 69300"><path data-name="Rectangle 5728" style="fill:#2e2e76" d="M0 0h10.676v1.025H0z" transform="translate(143.757 12.348)"></path></g><g data-name="Group 69301"><path data-name="Rectangle 5729" style="fill:#2e2e76" d="M0 0h10.676v1.025H0z" transform="translate(143.757 15.906)"></path></g><g data-name="Group 69302"><path data-name="Rectangle 5730" style="fill:#2e2e76" d="M0 0h5.338v1.025H0z" transform="translate(192.716 65.922)"></path></g><g data-name="Group 69303"><path data-name="Rectangle 5731" style="fill:#2e2e76" d="M0 0h10.676v1.025H0z" transform="translate(192.716 69.48)"></path></g><g data-name="Group 69304"><path data-name="Rectangle 5732" style="fill:#2e2e76" d="M0 0h10.676v1.025H0z" transform="translate(192.716 73.039)"></path></g><g data-name="Group 69305"><path data-name="Path 109831" d="M1077.817 487.723h-1.025v-13.309h-13.309v-1.025h14.334z" transform="translate(-879.241 -424.352)" style="fill:#2e2e76"></path></g><g data-name="Group 69306"><path data-name="Path 109832" d="M916.64 483.841h-1.025v-15.325h14.335v1.025h-13.31z" transform="translate(-761.695 -420.478)" style="fill:#2e2e76"></path></g></g><g data-name="Group 69309"><path data-name="Rectangle 5734" transform="translate(231.088 140.058)" style="fill:#fff" d="M0 0h6.373v9.225H0z"></path><path data-name="Path 109834" d="M1296.838 925.014h-7.4v-10.25h7.4zm-6.373-1.025h5.348v-8.2h-5.348z" transform="translate(-1058.864 -775.219)" style="fill:#2e2e76"></path></g><g data-name="Chart"><g data-name="Group 69313"><path data-name="Rectangle 5738" transform="translate(59.877 .615)" style="fill:#fff" d="M0 0h54.751v54.751H0z"></path><path data-name="Path 109838" d="M509.981 290.231H454V234.25h55.981zM455.23 289h53.52v-53.52h-53.52z" transform="translate(-394.738 -234.25)" style="fill:#f5b3a5"></path></g><g data-name="Group 69314"><path data-name="Rectangle 5739" style="fill:#e6e6e6" d="M0 0h1.025v54.439H0z" transform="translate(62.25 .693)"></path></g><g data-name="Group 69315"><path data-name="Rectangle 5740" style="fill:#e6e6e6" d="M0 0h1.025v54.439H0z" transform="translate(74.573 .771)"></path></g><g data-name="Group 69316"><path data-name="Rectangle 5741" style="fill:#e6e6e6" d="M0 0h1.025v54.439H0z" transform="translate(86.896 .771)"></path></g><g data-name="Group 69317"><path data-name="Rectangle 5742" style="fill:#e6e6e6" d="M0 0h1.025v54.439H0z" transform="translate(99.218 .771)"></path></g><g data-name="Group 69318"><path data-name="Rectangle 5743" style="fill:#e6e6e6" d="M0 0h1.025v54.439H0z" transform="translate(111.541 .771)"></path></g><g data-name="Group 69319"><path data-name="Rectangle 5744" style="fill:#e6e6e6" d="M0 0h54.595v1.025H0z" transform="translate(59.955 2.832)"></path></g><g data-name="Group 69320"><path data-name="Rectangle 5745" style="fill:#e6e6e6" d="M0 0h54.595v1.025H0z" transform="translate(60.033 15.311)"></path></g><g data-name="Group 69321"><path data-name="Rectangle 5746" style="fill:#e6e6e6" d="M0 0h54.595v1.025H0z" transform="translate(60.033 27.478)"></path></g><g data-name="Group 69322"><path data-name="Rectangle 5747" style="fill:#e6e6e6" d="M0 0h54.595v1.025H0z" transform="translate(60.033 39.645)"></path></g><g data-name="Group 69323"><path data-name="Rectangle 5748" style="fill:#e6e6e6" d="M0 0h54.595v1.025H0z" transform="translate(60.033 51.811)"></path></g><g data-name="Group 69324"><path data-name="Path 109839" d="m495.118 332.572-12.46-12.618-11.88 12.183-.734-.716 12.609-12.931 12.185 12.34 12.323-24.8 12.827 12.989-.73.721-11.818-11.97z" transform="translate(-407.491 -291.309)" style="fill:#2563f6"></path></g><g data-name="Group 69325" transform="translate(72.233 24.982)"><circle data-name="Ellipse 6230" cx="2.418" cy="2.418" r="2.418" transform="translate(.513 .513)" style="fill:#fff"></circle><path data-name="Path 109840" d="M520.186 361.94a2.93 2.93 0 1 1 2.93-2.93 2.934 2.934 0 0 1-2.93 2.93zm0-4.835a1.905 1.905 0 1 0 1.9 1.905 1.907 1.907 0 0 0-1.9-1.91z" transform="translate(-517.256 -356.079)" style="fill:#2e2e76"></path></g><g data-name="Group 69326" transform="translate(59.911 37.461)"><circle data-name="Ellipse 6231" cx="2.418" cy="2.418" r="2.418" transform="translate(.513 .513)" style="fill:#fff"></circle><path data-name="Path 109841" d="M460.093 422.795a2.93 2.93 0 1 1 2.93-2.93 2.934 2.934 0 0 1-2.93 2.93zm0-4.835a1.905 1.905 0 1 0 1.905 1.9 1.907 1.907 0 0 0-1.905-1.901z" transform="translate(-457.163 -416.934)" style="fill:#2e2e76"></path></g><g data-name="Group 69327" transform="translate(84.556 37.461)"><circle data-name="Ellipse 6232" cx="2.418" cy="2.418" r="2.418" transform="translate(.513 .513)" style="fill:#fff"></circle><path data-name="Path 109842" d="M580.281 422.795a2.93 2.93 0 1 1 2.93-2.93 2.934 2.934 0 0 1-2.93 2.93zm0-4.835a1.905 1.905 0 1 0 1.905 1.9 1.907 1.907 0 0 0-1.905-1.901z" transform="translate(-577.351 -416.934)" style="fill:#2e2e76"></path></g><g data-name="Group 69328" transform="translate(96.879 12.659)"><circle data-name="Ellipse 6233" cx="2.418" cy="2.418" r="2.418" transform="translate(.513 .513)" style="fill:#fff"></circle><path data-name="Path 109843" d="M640.374 301.846a2.93 2.93 0 1 1 2.93-2.93 2.934 2.934 0 0 1-2.93 2.93zm0-4.835a1.905 1.905 0 1 0 1.905 1.905 1.907 1.907 0 0 0-1.905-1.906z" transform="translate(-637.444 -295.985)" style="fill:#2e2e76"></path></g><g data-name="Group 69329" transform="translate(109.202 25.138)"><circle data-name="Ellipse 6234" cx="2.418" cy="2.418" r="2.418" transform="translate(.513 .513)" style="fill:#fff"></circle><path data-name="Path 109844" d="M700.469 362.7a2.93 2.93 0 1 1 2.93-2.93 2.934 2.934 0 0 1-2.93 2.93zm0-4.835a1.905 1.905 0 1 0 1.905 1.9 1.907 1.907 0 0 0-1.905-1.9z" transform="translate(-697.539 -356.84)" style="fill:#2e2e76"></path></g></g><g data-name="Chart"><g data-name="Group 69330"><path data-name="Rectangle 5749" transform="translate(88.585 78.332)" style="fill:#fff" d="M0 0h37.32v25.658H0z"></path><path data-name="Path 109845" d="M594 640.139h38.551V613.25H594zm37.32-1.23h-36.09V614.48h36.09z" transform="translate(-506.03 -535.533)" style="fill:#f5b3a5"></path></g><g data-name="Group 69331"><path data-name="Rectangle 5750" transform="translate(117.646 82.748)" style="fill:#2a69ea" d="M0 0h4.505v17.285H0z"></path></g><g data-name="Group 69332"><path data-name="Rectangle 5751" transform="translate(101.292 89.373)" style="fill:#f5b3a5" d="M0 0h4.505v10.66H0z"></path></g><g data-name="Group 69333"><path data-name="Rectangle 5752" transform="translate(109.42 86.108)" style="fill:#89efd7" d="M0 0h4.505v13.925H0z"></path></g><g data-name="Group 69334"><path data-name="Rectangle 5753" style="fill:#2e2e76" d="M0 0h4.505v7.443H0z" transform="translate(93.066 92.639)"></path></g><g data-name="Group 69335"><path data-name="Rectangle 5754" style="fill:#2e2e76" d="M0 0h32.525v1.025H0z" transform="translate(91.073 99.471)"></path></g></g><g data-name="Group 69345"><path data-name="Path 109855" d="M1261.012 817.171s-3.9 9.228-19.07 9.843c0 0-17.43 2.461-21.941-7.587l2.666-6.357 36.705-.82z" transform="translate(-1003.663 -693.727)" style="fill:#f5b3a5"></path></g><g data-name="Group 69346"><path data-name="Path 109856" d="M1071.314 768.66s-2.871 8.2 3.076 13.944l6.152-2.256-3.076-12.1z" transform="translate(-884.917 -658.749)" style="fill:#2e2e76"></path></g><g data-name="Group 69347"><path data-name="Path 109857" d="m996.206 774.25-27.026 5.018s-.491 3.8 7.541 2.027c0 0-1.418 7.454 6.035 5.971a1.922 1.922 0 0 0 1.391-1.857s2.7.028 3.943-1.394l10.782-1.358z" transform="translate(-804.272 -663.519)" style="fill:#fff"></path><path data-name="Path 109858" d="M978.958 785.7a4.66 4.66 0 0 1-3.426-1.235c-1.43-1.418-1.478-3.644-1.389-4.8-3.216.619-5.443.386-6.624-.7a2.5 2.5 0 0 1-.831-2.044l.048-.37 27.838-5.168 2.989 9.426-11.209 1.412a6.113 6.113 0 0 1-3.74 1.4 2.4 2.4 0 0 1-1.73 1.861 9.921 9.921 0 0 1-1.926.218zm-3.571-7.346-.145.764c-.006.03-.555 3.07 1.015 4.622.91.9 2.4 1.152 4.415.751a1.4 1.4 0 0 0 .979-1.382l.027-.489h.49c.023 0 2.48 0 3.553-1.219l.128-.146 10.364-1.3-2.343-7.389-26.134 4.852a1.542 1.542 0 0 0 .492.816c.7.622 2.374 1.177 6.4.289z" transform="translate(-802.288 -661.245)" style="fill:#2e2e76"></path></g><g data-name="Group 69348"><path data-name="Path 109859" d="M1320.582 794.75s-1.435 10.583-4.921 16.356l-2.666 17.991H1297l1.641-34.347z" transform="translate(-1064.874 -679.815)" style="fill:#2e2e76"></path></g><g data-name="Group 69349"><path data-name="Path 109860" d="M1244 798.5s-4.1 12.315-10.048 15.586l-5.639 17.991H1203.5l7.074-32.808z" transform="translate(-990.547 -682.8)" style="fill:#2e2e76"></path></g><g data-name="Group 69350"><path data-name="Path 109861" d="m1321.1 831.514-.971-.33 6.215-18.275.173-.1c.077-.043 7.813-4.458 9.792-15.23l1.009.185c-1.926 10.484-8.9 15.1-10.128 15.84z" transform="translate(-1083.263 -682.067)" style="fill:#fff"></path></g><g data-name="Group 69353"><g data-name="Group 69351"><path data-name="Path 109862" d="m1272.283 493.987-1.654-13.534-2.068-11.622-11.626 1.1s-5.985 17.345 4.431 15.515l.251 7.571z" transform="translate(-1031.664 -420.728)" style="fill:#fff"></path><path data-name="Path 109863" d="m1270.888 492.4-11.749-1.069-.247-7.45a5 5 0 0 1-4.675-1.5c-3.41-4 .1-14.335.253-14.773l.107-.312 12.423-1.173 2.155 12.115zm-10.754-2.008 9.583.872-1.576-12.891-1.982-11.143-10.821 1.024c-.553 1.739-3.07 10.263-.34 13.462.911 1.068 2.317 1.418 4.3 1.069l.582-.1z" transform="translate(-1029.684 -418.576)" style="fill:#2e2e76"></path></g><g data-name="Group 69352"><path data-name="Path 109864" d="M1240.97 448.314c-.024-2.309 3.334-2.556 3.334-2.556-1.123-.268-1.459-.892-1.415-1.386.251-2.8 5.872-.9 5.872-.9-1.132-1.108.545-1.406.545-1.406 2.051-.193 5.684 1.269 8.2 2.437.858.035 11.624.792 2.639 16.495 0 0-5.866 1.462-6.208-4.416 0 0 1.7-2.906-.919-3.427a1.3 1.3 0 0 0-1.309.533 5.961 5.961 0 0 0-.74 1.383.646.646 0 0 1-.6.428.645.645 0 0 1-.652-.638l-.025-2.322c-4.719-.224-8.704-2.593-8.722-4.225z" transform="translate(-1020.333 -399.437)" style="fill:#2e2e76"></path></g></g><g data-name="Group 69354"><path data-name="Path 109865" d="M1144.948 617.756s-8.206-3.28-20.709-2.559a67.616 67.616 0 0 0-20.243 4.75l1.583-8.236-28.5 6.357s1.846-4.511 1.23-7.587a9.2 9.2 0 0 0-4.306-6.357l23.992-8.2 3.581-19.526a12.149 12.149 0 0 1 5.853-8.317l5.481-3.18a16.621 16.621 0 0 1 5.6-2.016l9.641-1.613 6.044 1.977a7.436 7.436 0 0 1 4.278 3.621c4.2 8.017 15.269 31.21 3.621 32.355z" transform="translate(-887.602 -494.214)" style="fill:#2563f6"></path></g><g data-name="Group 69355"><path data-name="Path 109866" d="m1227.592 713.067-.284-.985c11.578-3.336 10.916-23.684 10.908-23.889l1.025-.04a46.392 46.392 0 0 1-1.115 11.029c-1.755 7.603-5.398 12.405-10.534 13.885z" transform="translate(-1009.473 -595.076)" style="fill:#2e2e76"></path></g><g data-name="Group 69356"><path data-name="Rectangle 5756" transform="rotate(-7.174 779.798 -1961.607)" style="fill:#2e2e76" d="M0 0h1.025v23.23H0z"></path></g><g data-name="Group 69357"><path data-name="Path 109867" d="M1014.517 821.962a13.881 13.881 0 0 1-.217-3.962l1.02.1a13.039 13.039 0 0 0 .194 3.624z" transform="translate(-840.101 -698.299)" style="fill:#2e2e76"></path></g><g data-name="Group 69358"><path data-name="Path 109868" d="M1024.724 825.756a21.989 21.989 0 0 1-.224-3.506h1.025a20.964 20.964 0 0 0 .186 3.23z" transform="translate(-848.252 -701.676)" style="fill:#2e2e76"></path></g><g><g data-name="Group 69359"><path data-name="Path 109869" d="M528.486 588.172s2.461-.41 5.126 2.461c0 0 3.691 4.1 2.256 8l-3.281 1.64-7.587-9.026z" transform="translate(-451.18 -515.581)" style="fill:#2e2e76"></path></g><g data-name="Group 69360"><path data-name="Path 109870" d="m524.972 561.983 4.7-3.76 2.162-4.021 4.564-4.094a.774.774 0 0 1 1.288.525 4.187 4.187 0 0 1-1.068 3.406s4.443-2.858 7.039-3.364a1.138 1.138 0 0 1 1.361 1.082c.048 1.29-.482 3.551-3.9 5.935l-5.435 4.009-6.255 5.152z" transform="translate(-451.157 -485.181)" style="fill:#fff"></path><path data-name="Path 109871" d="M527.437 565.377a.512.512 0 0 1-.379-.167l-4.451-4.868a.513.513 0 0 1 .058-.746l4.617-3.695 2.113-3.928a.516.516 0 0 1 .109-.139l4.564-4.094a1.287 1.287 0 0 1 2.142.868 5.9 5.9 0 0 1-.166 1.994 21.749 21.749 0 0 1 5.527-2.418 1.65 1.65 0 0 1 1.971 1.566c.058 1.557-.61 3.927-4.121 6.374l-5.413 3.993-6.245 5.143a.51.51 0 0 1-.326.117zm-3.7-5.323 3.753 4.105 5.88-4.842.022-.017 5.435-4.009c3.308-2.305 3.734-4.437 3.694-5.5a.627.627 0 0 0-.237-.476.619.619 0 0 0-.513-.122c-2.47.482-6.816 3.264-6.859 3.292a.513.513 0 0 1-.631-.8 3.713 3.713 0 0 0 .91-3 .26.26 0 0 0-.166-.229.249.249 0 0 0-.269.048l-4.5 4.035-2.12 3.941a.513.513 0 0 1-.131.157z" transform="translate(-449.171 -483.194)" style="fill:#2e2e76"></path></g><g data-name="Group 69363"><g data-name="Group 69361"><path data-name="Path 109872" d="m294.187 483.485-.79-12.128s10.344.333 1.5-16.687l-14.074 5.513 2.742 10.392-.821 13z" transform="translate(-257.075 -409.472)" style="fill:#fff"></path><path data-name="Path 109873" d="m279.827 481.59.85-13.466-2.837-10.754 14.928-5.847.212.409c3.644 7.014 4.556 12.059 2.708 14.993a5.447 5.447 0 0 1-4.119 2.417l.791 12.151zm-.763-23.6 2.646 10.031-.791 12.534 10.348-.081-.791-12.15.565.018a4.561 4.561 0 0 0 3.786-1.975c1.1-1.762 1.538-5.54-2.546-13.554z" transform="translate(-254.702 -406.97)" style="fill:#2e2e76"></path></g><g data-name="Group 69362"><path data-name="Path 109874" d="M239.882 427.193s-1.554-2.584-3.13-.715c-.67.794-.591 2.869 2.093 3.59 0 0 .735 4.659-3.961 5.426 0 0-6.324-5.56-4.738-12.448 0 0-8 2.582-9.811-4.725a6.115 6.115 0 0 1 5.45-7.218c2.4-.354 6.895.541 7.361 6.331 0 0 9.8-6.421 15.094 3.862.001-.001-3.32 5.375-8.358 5.897z" transform="translate(-208.891 -374.784)" style="fill:#2e2e76"></path></g></g><g data-name="Group 69364"><path data-name="Path 109875" d="M255.087 811.2s-4.763 11.536-22.6 10.033c-10.56-.889-19.607-.214-21.485-7.162l2.871-8.2 39.576-.615z" transform="translate(-201.568 -688.162)" style="fill:#2563f6"></path></g><g data-name="Group 69365"><path data-name="Path 109876" d="M220.544 740.177s-6.385 12.557-8.826 25.719l-2.629 19.819h22.534l15.962-45.538z" transform="translate(-200.049 -636.433)" style="fill:#2e2e76"></path></g><g data-name="Group 69366"><path data-name="Path 109877" d="M303.827 740.177s6.76 32.682 5.634 45.538H279.6l3-43.834z" transform="translate(-256.103 -636.433)" style="fill:#2e2e76"></path></g><g data-name="Group 69367"><path data-name="Rectangle 5757" transform="rotate(-70.68 120.651 52.614)" style="fill:#fff" d="M0 0h26.589v1.025H0z"></path></g><g data-name="Group 69368"><path data-name="Path 109878" d="m191.292 586.987 3.025-27.278a10.071 10.071 0 0 1 5.526-7.907l11.164-5.551s11.077 10.606 12.117.205l8.815 3.814a21.667 21.667 0 0 1 4.761 2.83l12.158 12.839 14.377-11.171a15.047 15.047 0 0 0 1.617 5.635 10.917 10.917 0 0 0 5.742 4.921l-18.339 15.495a5.51 5.51 0 0 1-6.688.325l-10.154-7.014 4.012 31.18s-4.975-4.895-20.349-4.036c-17.177.96-23.739 6.906-23.739 6.906l4.511-21.884z" transform="translate(-185.901 -482.272)" style="fill:#89efd7"></path></g><g data-name="Group 69371"><g data-name="Group 69369"><path data-name="Path 109879" d="M223.539 584.712h-9.2l-1.127 1.69 3.756 4.882h9.2z" transform="translate(-203.325 -512.847)" style="fill:#54b4a6"></path></g><g data-name="Group 69370"><path data-name="Path 109880" d="M224.481 589.81H214.27l-4.134-5.374 1.483-2.224h9.823zm-9.706-1.025h8.192l-2.219-5.547h-8.58l-.771 1.156z" transform="translate(-200.881 -510.86)" style="fill:#2e2e76"></path></g></g><g data-name="Group 69374"><g data-name="Group 69372"><path data-name="Path 109881" d="M217.445 646.337h-26.087l-15.558-37.31a2.781 2.781 0 0 1 .253-2.613 1.436 1.436 0 0 1 1.194-.639h26.372a1.436 1.436 0 0 1 1.348.941l13.83 37.691a1.436 1.436 0 0 1-1.352 1.93z" transform="translate(-173.413 -529.591)" style="fill:#54b4a6"></path></g><g data-name="Group 69373"><path data-name="Path 109882" d="M215.455 644.861h-26.429l-15.694-37.625a3.286 3.286 0 0 1 .3-3.095 1.944 1.944 0 0 1 1.621-.868h26.372a1.955 1.955 0 0 1 1.829 1.277l13.83 37.691a1.948 1.948 0 0 1-1.829 2.619zm-25.745-1.025h25.745a.923.923 0 0 0 .866-1.241L202.492 604.9a.926.926 0 0 0-.866-.605h-26.373a.921.921 0 0 0-.768.411 2.263 2.263 0 0 0-.206 2.131z" transform="translate(-171.422 -527.603)" style="fill:#2e2e76"></path></g></g><g data-name="Group 69375"><path data-name="Path 109883" d="M216.807 655.149h-25.082a1.436 1.436 0 0 1-1.347-.939l-13.072-35.418a1.435 1.435 0 0 1 1.347-1.932h25.083a1.435 1.435 0 0 1 1.347.938l13.072 35.418a1.436 1.436 0 0 1-1.348 1.933z" transform="translate(-174.712 -538.403)" style="fill:#fff"></path><path data-name="Path 109884" d="M214.826 653.673h-25.083a1.955 1.955 0 0 1-1.827-1.273l-13.072-35.418a1.948 1.948 0 0 1 1.827-2.622h25.083a1.956 1.956 0 0 1 1.827 1.273l13.072 35.418a1.948 1.948 0 0 1-1.828 2.622zm-38.155-38.289a.923.923 0 0 0-.866 1.242l13.072 35.418a.927.927 0 0 0 .866.6h25.082a.923.923 0 0 0 .866-1.242l-13.072-35.418a.927.927 0 0 0-.866-.6z" transform="translate(-172.73 -536.415)" style="fill:#2e2e76"></path></g><g data-name="Group 69376"><path data-name="Path 109885" d="m210.185 682.051 5.918-4.227h6.4s.966 1.691-2.778 3.14l3.284.293s4.621.658 3.108 7.308l-4.241 1.649-7.941-1.386s-11.935 7.94-16.435 9.407a5.228 5.228 0 0 1-6.764-3.235c-1.128-3.062.23-6.3 6.632-8.719z" transform="translate(-185.174 -586.865)" style="fill:#fff"></path><path data-name="Path 109886" d="M193.645 697.036a5.489 5.489 0 0 1-5.411-3.848c-1-2.708-.6-6.532 6.932-9.376l.02-.007 12.744-4.2 5.855-4.182a.513.513 0 0 1 .3-.1h6.4a.513.513 0 0 1 .445.258 1.766 1.766 0 0 1 .063 1.425 3.373 3.373 0 0 1-1.434 1.62l1.478.132h.027a4.589 4.589 0 0 1 2.9 1.9c1 1.451 1.211 3.478.632 6.025a.513.513 0 0 1-.314.364l-4.241 1.649a.514.514 0 0 1-.274.027l-7.739-1.351c-1.536 1.016-12.117 7.96-16.392 9.353a6.593 6.593 0 0 1-1.991.311zm1.873-12.261c-3.723 1.407-7.837 3.946-6.322 8.058a4.7 4.7 0 0 0 6.125 2.926c4.384-1.428 16.194-9.266 16.313-9.345a.515.515 0 0 1 .372-.078l7.8 1.361 3.851-1.5c.442-2.129.262-3.794-.534-4.952a3.565 3.565 0 0 0-2.193-1.47l-3.268-.292a.513.513 0 0 1-.139-.989c1.836-.711 2.35-1.435 2.493-1.8a.961.961 0 0 0 .069-.347h-5.836l-5.785 4.132a.521.521 0 0 1-.137.07zm12.647-4.712z" transform="translate(-183.154 -584.878)" style="fill:#2e2e76"></path></g><g data-name="Group 69377"><path data-name="Path 109887" d="m397.809 633.662-.963-10.264.432-.1a1.832 1.832 0 0 0 1.315-1.08c1.343-2.963-2.09-10.722-3.527-13.461l.908-.476c.22.42 5.376 10.336 3.552 14.36a2.807 2.807 0 0 1-1.58 1.52l.883 9.409z" transform="translate(-347.89 -531.579)" style="fill:#2e2e76"></path></g><g data-name="Group 69378"><path data-name="Path 109888" d="M222.412 594.786h-9.2l2.33 5.824a1.191 1.191 0 0 0 1.105.748h6.637a1.191 1.191 0 0 0 1.105-1.633z" transform="translate(-203.325 -520.855)" style="fill:#fff"></path><path data-name="Path 109889" d="M220.347 599.883h-6.637a1.7 1.7 0 0 1-1.581-1.071l-2.611-6.527h10.306l2.1 5.262a1.7 1.7 0 0 1-1.581 2.336zm-9.315-6.573 2.049 5.121a.675.675 0 0 0 .629.426h6.637a.678.678 0 0 0 .629-.93l-1.847-4.618z" transform="translate(-200.39 -518.867)" style="fill:#2e2e76"></path></g><g data-name="Group 69379"><path data-name="Line 67" transform="translate(18.899 71.865)" style="fill:#54b4a6" d="M0 2.066 1.315 0"></path><path data-name="Rectangle 5758" transform="rotate(-57.533 76.316 20.009)" style="fill:#2e2e76" d="M0 0h2.448v1.025H0z"></path></g></g><g><g data-name="Group 69380"><path data-name="Rectangle 5759" style="fill:#6e6e6e" d="M0 0h260.424v1.025H0z" transform="translate(0 148.975)"></path></g></g></g></svg>