<svg xmlns="http://www.w3.org/2000/svg" width="227.255" height="163.186" viewBox="0 0 227.255 163.186"><g data-name="Group 69381"><g data-name="Group 33"><g data-name="Group 13"><g data-name="Group 12"><path data-name="Path 10" d="m189.606 157.734-7.731 24.118a1.679 1.679 0 0 1-2.806.654l-4.017-4.16a1.679 1.679 0 0 0-2.336-.077l-33.568 30.477a1.679 1.679 0 0 1-2.2.048l-21.3-17.727a1.679 1.679 0 0 0-2.187.034L71.593 228.2l1.587-14.85a1.68 1.68 0 0 1 .556-1.078l39.509-35.012a1.679 1.679 0 0 1 2.187-.034l21.211 17.656a1.68 1.68 0 0 0 2.2-.047l26.5-24.052a1.679 1.679 0 0 0 .079-2.409l-3.971-4.113a1.679 1.679 0 0 1 .829-2.8l25.35-5.872a1.679 1.679 0 0 1 1.976 2.145z" transform="translate(-14.013 -155.04)" style="fill:#407bff"></path><path data-name="Path 11" d="m189.594 157.789-7.706 24.039a1.7 1.7 0 0 1-2.847.663l-3.972-4.114a1.7 1.7 0 0 0-2.369-.079l-33.533 30.446a1.687 1.687 0 0 1-1.212.439 1.654 1.654 0 0 1-1.025-.389l-21.264-17.7a1.721 1.721 0 0 0-2.222.035l-41.85 37.09 1.656-15.5 39.98-35.43a1.71 1.71 0 0 1 2.221-.032l9.035 7.52 12.142 10.107a1.68 1.68 0 0 0 1.13.39 1.7 1.7 0 0 0 1.106-.441l26.459-24.021a1.7 1.7 0 0 0 .081-2.444l-3.923-4.061a1.7 1.7 0 0 1 .842-2.843l25.263-5.854a1.7 1.7 0 0 1 2.008 2.179z" transform="translate(-14.013 -155.055)" style="stroke:#f5b3a5;fill:#fff"></path></g></g><g data-name="Group 32"><g data-name="Group 31"><g data-name="Group 26"><path data-name="Rectangle 107" style="fill:#89efd7" d="M0 0h12.983v47.445H0z" transform="translate(194.547 102.61)"></path><g data-name="Group 25" style="opacity:.4"><path data-name="Path 16" d="M337.146 381.07v9.65l12.983 12.98v-10.38z" transform="translate(-142.599 -265.833)" style="fill:#fff"></path><path data-name="Path 17" d="M337.146 370.91v1.641l12.983 12.983V383.9z" transform="translate(-142.599 -262.729)" style="fill:#fff"></path></g></g><g data-name="Group 28"><path data-name="Rectangle 108" style="fill:#89efd7" d="M0 0h12.983v32.16H0z" transform="translate(178.564 117.895)"></path><g data-name="Group 27" style="opacity:.4"><path data-name="Path 18" d="M360.159 398.551v9.549l12.983 12.977v-10.269z" transform="translate(-181.595 -271.174)" style="fill:#fff"></path><path data-name="Path 19" d="M360.159 392.07v1.835l12.983 12.983v-1.842z" transform="translate(-181.595 -269.194)" style="fill:#fff"></path></g></g><g data-name="Group 30"><path data-name="Rectangle 109" transform="translate(210.529 79.808)" style="fill:#89efd7" d="M0 0h12.983v70.247H0z"></path><g data-name="Group 29" style="opacity:.4"><path data-name="Path 20" d="M314.132 349.049v9.6l12.983 12.983v-10.326z" transform="translate(-103.603 -256.051)" style="fill:#fff"></path><path data-name="Path 21" d="M314.132 341.448v1.8l12.983 12.99v-1.8z" transform="translate(-103.603 -253.729)" style="fill:#fff"></path></g></g><path data-name="Path 22" d="M321.088 337.267a1.857 1.857 0 1 0 .59-2.559 1.857 1.857 0 0 0-.59 2.559z" transform="translate(-105.641 -251.583)" style="fill:#263238"></path><path data-name="Path 23" d="M344.1 369.746a1.857 1.857 0 1 0 .59-2.559 1.858 1.858 0 0 0-.59 2.559z" transform="translate(-144.638 -261.506)" style="fill:#263238"></path><path data-name="Path 24" d="M367.114 391.733a1.857 1.857 0 1 0 .591-2.559 1.857 1.857 0 0 0-.591 2.559z" transform="translate(-183.634 -268.223)" style="fill:#263238"></path></g></g></g><g data-name="Group 69535"><g data-name="Group 69530"><g data-name="Group 69529"><g data-name="Group 69528"><g data-name="Group 69527" transform="translate(50.5 77.195)"><circle data-name="Ellipse 6240" cx="30.402" cy="30.402" r="30.402" transform="rotate(-45 51.9 21.497)"></circle></g></g></g></g><g data-name="Group 69534"><g data-name="Group 69533"><g data-name="Group 69532"><g data-name="Group 69531"><path data-name="Path 109919" d="M93.495 151.005a30.816 30.816 0 1 1 30.816-30.816 30.851 30.851 0 0 1-30.816 30.816zm0-60.8a29.988 29.988 0 1 0 29.988 29.988 30.022 30.022 0 0 0-29.988-29.988z"></path></g></g></g></g></g><g data-name="Group 69544"><g data-name="Group 69539"><g data-name="Group 69538"><g data-name="Group 69537"><g data-name="Group 69536" transform="translate(45.021 77.195)"><circle data-name="Ellipse 6241" cx="30.402" cy="30.402" r="30.402" transform="rotate(-45 51.9 21.497)" style="fill:#f8e79e"></circle></g></g></g></g><g data-name="Group 69543"><g data-name="Group 69542"><g data-name="Group 69541"><g data-name="Group 69540"><path data-name="Path 109920" d="M88.016 151.005a30.816 30.816 0 1 1 30.816-30.816 30.851 30.851 0 0 1-30.816 30.816zm0-60.8a29.988 29.988 0 1 0 29.988 29.988 30.022 30.022 0 0 0-29.988-29.988z"></path></g></g></g></g></g><g data-name="Group 69551"><g data-name="Group 69547"><g data-name="Group 69546"><g data-name="Group 69545" transform="translate(56.248 88.422)"><circle data-name="Ellipse 6242" cx="22.463" cy="22.463" r="22.463" transform="rotate(-45 38.347 15.884)" style="fill:#fff"></circle></g></g></g><g data-name="Group 69550"><g data-name="Group 69549"><g data-name="Group 69548"><path data-name="Path 109921" d="M88.016 143.068a22.877 22.877 0 1 1 22.877-22.877 22.9 22.9 0 0 1-22.877 22.877zm0-44.927a22.049 22.049 0 1 0 22.049 22.049 22.074 22.074 0 0 0-22.049-22.049z"></path></g></g></g></g><g data-name="Group 69556"><g data-name="Group 69555"><g data-name="Group 69554"><g data-name="Group 69553"><g data-name="Group 69552"><path data-name="Path 109922" d="M94.525 128.751a8.5 8.5 0 0 1-5.1 2.026v3.312H87v-3.282a16.577 16.577 0 0 1-4.14-.8 9.019 9.019 0 0 1-3.1-1.656l1.331-2.987a9.786 9.786 0 0 0 2.661 1.493 11.829 11.829 0 0 0 3.253.754v-5.914a21.725 21.725 0 0 1-3.5-1.109 6.067 6.067 0 0 1-2.351-1.774 4.756 4.756 0 0 1-.946-3.09 5.464 5.464 0 0 1 1.745-4.081 8.206 8.206 0 0 1 5.057-2.011v-3.341h2.415v3.282a13.858 13.858 0 0 1 3.238.562 10.663 10.663 0 0 1 2.762 1.248l-1.212 2.987a12.309 12.309 0 0 0-4.79-1.6v5.973a22.786 22.786 0 0 1 3.534 1.094 6.075 6.075 0 0 1 2.366 1.759 4.713 4.713 0 0 1 .961 3.09 5.4 5.4 0 0 1-1.759 4.065zm-9.743-11.636A6.663 6.663 0 0 0 87 118.12v-5.263a4.1 4.1 0 0 0-2.247.946 2.323 2.323 0 0 0-.739 1.745 1.879 1.879 0 0 0 .764 1.567zm6.964 9.522a2.178 2.178 0 0 0 .754-1.685 1.925 1.925 0 0 0-.8-1.612 6.852 6.852 0 0 0-2.277-1.02v5.234a4.4 4.4 0 0 0 2.319-.918z"></path></g></g></g></g></g><g><g data-name="Group 69655"><g data-name="Group 69563"><g data-name="Group 69559"><g data-name="Group 69558"><g data-name="Group 69557" transform="translate(162.317 124.526)"><rect data-name="Rectangle 5764" width="25.104" height="5.225" rx="2.613" style="fill:#f8e79e"></rect></g></g></g><g data-name="Group 69562"><g data-name="Group 69561"><g data-name="Group 69560"><path data-name="Path 109923" d="M186.593 130.165h-23.448a1.244 1.244 0 0 1-1.246-1.245v-3.569a1.244 1.244 0 0 1 1.242-1.242h23.448a1.244 1.244 0 0 1 1.242 1.242v3.569a1.244 1.244 0 0 1-1.238 1.245zm-23.448-5.225a.415.415 0 0 0-.414.414v3.566a.415.415 0 0 0 .414.414h23.448a.414.414 0 0 0 .414-.414v-3.569a.415.415 0 0 0-.414-.414z"></path></g></g></g></g><g data-name="Group 69570"><g data-name="Group 69566"><g data-name="Group 69565"><g data-name="Group 69564" transform="translate(128.751 124.583)"><rect data-name="Rectangle 5765" width="25.104" height="5.225" rx="2.613" style="fill:#f8e79e"></rect></g></g></g><g data-name="Group 69569"><g data-name="Group 69568"><g data-name="Group 69567"><path data-name="Path 109924" d="M153.027 130.222h-23.445a1.244 1.244 0 0 1-1.242-1.242v-3.569a1.244 1.244 0 0 1 1.242-1.242h23.448a1.244 1.244 0 0 1 1.242 1.242v3.569a1.244 1.244 0 0 1-1.245 1.242zm-23.445-5.225a.415.415 0 0 0-.414.414v3.569a.415.415 0 0 0 .414.414h23.448a.415.415 0 0 0 .414-.414v-3.569a.415.415 0 0 0-.414-.414z"></path></g></g></g></g><g data-name="Group 69577"><g data-name="Group 69573"><g data-name="Group 69572"><g data-name="Group 69571" transform="translate(120.004 119.357)"><rect data-name="Rectangle 5766" width="25.104" height="5.225" rx="2.613" style="fill:#f8e79e"></rect></g></g></g><g data-name="Group 69576"><g data-name="Group 69575"><g data-name="Group 69574"><path data-name="Path 109925" d="M144.28 124.996h-23.448a1.244 1.244 0 0 1-1.242-1.242v-3.569a1.244 1.244 0 0 1 1.242-1.242h23.448a1.244 1.244 0 0 1 1.242 1.242v3.569a1.244 1.244 0 0 1-1.242 1.242zm-23.448-5.225a.415.415 0 0 0-.414.414v3.569a.414.414 0 0 0 .414.414h23.448a.414.414 0 0 0 .414-.414v-3.569a.415.415 0 0 0-.414-.414z"></path></g></g></g></g><g data-name="Group 69584"><g data-name="Group 69580"><g data-name="Group 69579"><g data-name="Group 69578" transform="translate(121.495 114.132)"><rect data-name="Rectangle 5767" width="25.104" height="5.225" rx="2.613" style="fill:#f8e79e"></rect></g></g></g><g data-name="Group 69583"><g data-name="Group 69582"><g data-name="Group 69581"><path data-name="Path 109926" d="M145.771 119.775h-23.448a1.244 1.244 0 0 1-1.242-1.242v-3.569a1.244 1.244 0 0 1 1.242-1.242h23.448a1.244 1.244 0 0 1 1.242 1.242v3.569a1.244 1.244 0 0 1-1.242 1.242zm-23.448-5.225a.415.415 0 0 0-.414.414v3.569a.415.415 0 0 0 .414.414h23.448a.415.415 0 0 0 .414-.414v-3.569a.415.415 0 0 0-.414-.414z"></path></g></g></g></g><g data-name="Group 69591"><g data-name="Group 69587"><g data-name="Group 69586"><g data-name="Group 69585" transform="translate(121.495 108.907)"><rect data-name="Rectangle 5768" width="25.104" height="5.225" rx="2.613" style="fill:#f8e79e"></rect></g></g></g><g data-name="Group 69590"><g data-name="Group 69589"><g data-name="Group 69588"><path data-name="Path 109927" d="M145.771 114.546h-23.448a1.244 1.244 0 0 1-1.242-1.242v-3.569a1.244 1.244 0 0 1 1.242-1.242h23.448a1.244 1.244 0 0 1 1.242 1.242v3.569a1.244 1.244 0 0 1-1.242 1.242zm-23.448-5.225a.414.414 0 0 0-.414.414v3.569a.414.414 0 0 0 .414.414h23.448a.414.414 0 0 0 .414-.414v-3.569a.414.414 0 0 0-.414-.414z"></path></g></g></g></g><g data-name="Group 69598"><g data-name="Group 69594"><g data-name="Group 69593"><g data-name="Group 69592" transform="translate(121.254 129.808)"><rect data-name="Rectangle 5769" width="25.104" height="5.225" rx="2.613" style="fill:#f8e79e"></rect></g></g></g><g data-name="Group 69597"><g data-name="Group 69596"><g data-name="Group 69595"><path data-name="Path 109928" d="M145.53 135.448h-23.448a1.244 1.244 0 0 1-1.242-1.242v-3.569a1.244 1.244 0 0 1 1.242-1.242h23.447a1.244 1.244 0 0 1 1.242 1.242v3.569a1.244 1.244 0 0 1-1.241 1.242zm-23.447-5.225a.415.415 0 0 0-.414.414v3.569a.415.415 0 0 0 .414.414h23.447a.415.415 0 0 0 .414-.414v-3.569a.414.414 0 0 0-.414-.414z"></path></g></g></g></g><g data-name="Group 69605"><g data-name="Group 69601"><g data-name="Group 69600"><g data-name="Group 69599" transform="translate(121.254 135.033)"><rect data-name="Rectangle 5770" width="25.104" height="5.225" rx="2.613" style="fill:#f8e79e"></rect></g></g></g><g data-name="Group 69604"><g data-name="Group 69603"><g data-name="Group 69602"><path data-name="Path 109929" d="M145.53 140.672h-23.448a1.244 1.244 0 0 1-1.242-1.242v-3.569a1.244 1.244 0 0 1 1.242-1.242h23.447a1.244 1.244 0 0 1 1.242 1.242v3.569a1.244 1.244 0 0 1-1.241 1.242zm-23.447-5.225a.414.414 0 0 0-.414.414v3.569a.415.415 0 0 0 .414.414h23.447a.415.415 0 0 0 .414-.414v-3.569a.414.414 0 0 0-.414-.414z"></path></g></g></g></g><g data-name="Group 69612"><g data-name="Group 69608"><g data-name="Group 69607"><g data-name="Group 69606" transform="translate(118.438 140.258)"><rect data-name="Rectangle 5771" width="25.104" height="5.225" rx="2.613" style="fill:#f8e79e"></rect></g></g></g><g data-name="Group 69611"><g data-name="Group 69610"><g data-name="Group 69609"><path data-name="Path 109930" d="M142.714 145.897h-23.448a1.243 1.243 0 0 1-1.242-1.242v-3.569a1.244 1.244 0 0 1 1.242-1.242h23.448a1.244 1.244 0 0 1 1.242 1.242v3.569a1.244 1.244 0 0 1-1.242 1.242zm-23.448-5.227a.414.414 0 0 0-.414.414v3.569a.414.414 0 0 0 .414.414h23.448a.414.414 0 0 0 .414-.414v-3.569a.414.414 0 0 0-.414-.414z"></path></g></g></g></g><g data-name="Group 69619"><g data-name="Group 69615"><g data-name="Group 69614"><g data-name="Group 69613" transform="translate(121.254 145.484)"><rect data-name="Rectangle 5772" width="25.104" height="5.225" rx="2.613" style="fill:#f8e79e"></rect></g></g></g><g data-name="Group 69618"><g data-name="Group 69617"><g data-name="Group 69616"><path data-name="Path 109931" d="M145.53 151.123h-23.448a1.244 1.244 0 0 1-1.242-1.242v-3.569a1.244 1.244 0 0 1 1.242-1.242h23.447a1.244 1.244 0 0 1 1.242 1.242v3.569a1.244 1.244 0 0 1-1.241 1.242zm-23.447-5.225a.415.415 0 0 0-.414.414v3.569a.415.415 0 0 0 .414.414h23.447a.415.415 0 0 0 .414-.414v-3.569a.414.414 0 0 0-.414-.414z"></path></g></g></g></g><g data-name="Group 69626"><g data-name="Group 69622"><g data-name="Group 69621"><g data-name="Group 69620" transform="translate(158.285 129.808)"><rect data-name="Rectangle 5773" width="25.104" height="5.225" rx="2.613" style="fill:#f8e79e"></rect></g></g></g><g data-name="Group 69625"><g data-name="Group 69624"><g data-name="Group 69623"><path data-name="Path 109932" d="M182.561 135.448h-23.449a1.244 1.244 0 0 1-1.242-1.242v-3.569a1.244 1.244 0 0 1 1.242-1.242h23.447a1.244 1.244 0 0 1 1.242 1.242v3.569a1.244 1.244 0 0 1-1.24 1.242zm-23.447-5.225a.415.415 0 0 0-.414.414v3.569a.415.415 0 0 0 .414.414h23.447a.415.415 0 0 0 .414-.414v-3.569a.415.415 0 0 0-.414-.414z"></path></g></g></g></g><g data-name="Group 69633"><g data-name="Group 69629"><g data-name="Group 69628"><g data-name="Group 69627" transform="translate(164.419 135.033)"><rect data-name="Rectangle 5774" width="25.104" height="5.225" rx="2.613" style="fill:#f8e79e"></rect></g></g></g><g data-name="Group 69632"><g data-name="Group 69631"><g data-name="Group 69630"><path data-name="Path 109933" d="M188.695 140.672h-23.447a1.244 1.244 0 0 1-1.242-1.242v-3.569a1.243 1.243 0 0 1 1.242-1.242h23.447a1.244 1.244 0 0 1 1.242 1.242v3.569a1.244 1.244 0 0 1-1.242 1.242zm-23.447-5.225a.414.414 0 0 0-.414.414v3.569a.415.415 0 0 0 .414.414h23.447a.415.415 0 0 0 .414-.414v-3.569a.414.414 0 0 0-.414-.414z"></path></g></g></g></g><g data-name="Group 69640"><g data-name="Group 69636"><g data-name="Group 69635"><g data-name="Group 69634" transform="translate(157.49 140.258)"><rect data-name="Rectangle 5775" width="25.104" height="5.225" rx="2.613" style="fill:#f8e79e"></rect></g></g></g><g data-name="Group 69639"><g data-name="Group 69638"><g data-name="Group 69637"><path data-name="Path 109934" d="M181.766 145.897h-23.449a1.244 1.244 0 0 1-1.242-1.242v-3.569a1.244 1.244 0 0 1 1.242-1.242h23.447a1.244 1.244 0 0 1 1.242 1.242v3.569a1.243 1.243 0 0 1-1.24 1.242zm-23.449-5.227a.414.414 0 0 0-.414.414v3.569a.414.414 0 0 0 .414.414h23.447a.415.415 0 0 0 .414-.414v-3.569a.414.414 0 0 0-.414-.414z"></path></g></g></g></g><g data-name="Group 69647"><g data-name="Group 69643"><g data-name="Group 69642"><g data-name="Group 69641" transform="translate(157.49 145.484)"><rect data-name="Rectangle 5776" width="25.104" height="5.225" rx="2.613" style="fill:#f8e79e"></rect></g></g></g><g data-name="Group 69646"><g data-name="Group 69645"><g data-name="Group 69644"><path data-name="Path 109935" d="M181.766 151.123h-23.449a1.244 1.244 0 0 1-1.242-1.242v-3.569a1.244 1.244 0 0 1 1.242-1.242h23.447a1.243 1.243 0 0 1 1.242 1.242v3.569a1.243 1.243 0 0 1-1.24 1.242zm-23.447-5.225a.415.415 0 0 0-.414.414v3.569a.415.415 0 0 0 .414.414h23.447a.415.415 0 0 0 .414-.414v-3.569a.415.415 0 0 0-.414-.414z"></path></g></g></g></g><g data-name="Group 69654"><g data-name="Group 69650"><g data-name="Group 69649"><g data-name="Group 69648" transform="translate(182.594 145.484)"><rect data-name="Rectangle 5777" width="25.104" height="5.225" rx="2.613" style="fill:#f8e79e"></rect></g></g></g><g data-name="Group 69653"><g data-name="Group 69652"><g data-name="Group 69651"><path data-name="Path 109936" d="M206.87 151.123h-23.448a1.244 1.244 0 0 1-1.242-1.242v-3.569a1.244 1.244 0 0 1 1.242-1.242h23.448a1.244 1.244 0 0 1 1.242 1.242v3.569a1.244 1.244 0 0 1-1.242 1.242zm-23.448-5.225a.415.415 0 0 0-.414.414v3.569a.415.415 0 0 0 .414.414h23.448a.415.415 0 0 0 .414-.414v-3.569a.415.415 0 0 0-.414-.414z"></path></g></g></g></g></g><g data-name="Group 69686"><g data-name="Group 69664"><g data-name="Group 69659"><g data-name="Group 69658"><g data-name="Group 69657"><g data-name="Group 69656" transform="translate(140.872 123.649)"><circle data-name="Ellipse 6243" cx="13.472" cy="13.472" r="13.472"></circle></g></g></g></g><g data-name="Group 69663"><g data-name="Group 69662"><g data-name="Group 69661"><g data-name="Group 69660"><path data-name="Path 109937" d="M154.344 151.007a13.886 13.886 0 1 1 13.886-13.886 13.9 13.9 0 0 1-13.886 13.886zm0-26.943a13.058 13.058 0 1 0 13.057 13.058 13.073 13.073 0 0 0-13.057-13.059z"></path></g></g></g></g></g><g data-name="Group 69673"><g data-name="Group 69668"><g data-name="Group 69667"><g data-name="Group 69666"><g data-name="Group 69665" transform="translate(138.444 123.649)"><circle data-name="Ellipse 6244" cx="13.472" cy="13.472" r="13.472" style="fill:#f8e79e"></circle></g></g></g></g><g data-name="Group 69672"><g data-name="Group 69671"><g data-name="Group 69670"><g data-name="Group 69669"><path data-name="Path 109938" d="M151.916 151.007a13.886 13.886 0 1 1 13.886-13.886 13.9 13.9 0 0 1-13.886 13.886zm0-26.943a13.058 13.058 0 1 0 13.057 13.058 13.073 13.073 0 0 0-13.057-13.059z"></path></g></g></g></g></g><g data-name="Group 69680"><g data-name="Group 69676"><g data-name="Group 69675"><g data-name="Group 69674" transform="translate(140.747 125.952)"><circle data-name="Ellipse 6245" cx="9.954" cy="9.954" r="9.954" transform="matrix(.131 -.991 .991 .131 0 19.737)" style="fill:#fff"></circle></g></g></g><g data-name="Group 69679"><g data-name="Group 69678"><g data-name="Group 69677"><path data-name="Path 109939" d="M151.916 147.489a10.368 10.368 0 1 1 10.368-10.371 10.38 10.38 0 0 1-10.368 10.371zm0-19.908a9.54 9.54 0 1 0 9.54 9.54 9.55 9.55 0 0 0-9.54-9.54z"></path></g></g></g></g><g data-name="Group 69685"><g data-name="Group 69684"><g data-name="Group 69683"><g data-name="Group 69682"><g data-name="Group 69681"><path data-name="Path 109940" d="M154.799 140.914a3.767 3.767 0 0 1-2.26.9v1.468h-1.074v-1.454a7.356 7.356 0 0 1-1.834-.354 4 4 0 0 1-1.376-.734l.59-1.323a4.344 4.344 0 0 0 1.179.662 5.248 5.248 0 0 0 1.441.334v-2.621a9.652 9.652 0 0 1-1.553-.491 2.69 2.69 0 0 1-1.042-.786 2.107 2.107 0 0 1-.419-1.369 2.421 2.421 0 0 1 .773-1.808 3.637 3.637 0 0 1 2.241-.891v-1.481h1.074v1.448a6.146 6.146 0 0 1 1.435.249 4.722 4.722 0 0 1 1.225.55l-.537 1.323a5.455 5.455 0 0 0-2.123-.708v2.647a10.1 10.1 0 0 1 1.566.485 2.693 2.693 0 0 1 1.048.78 2.089 2.089 0 0 1 .426 1.369 2.392 2.392 0 0 1-.78 1.805zm-4.318-5.156a2.95 2.95 0 0 0 .983.445v-2.332a1.814 1.814 0 0 0-1 .419 1.029 1.029 0 0 0-.328.773.833.833 0 0 0 .346.695zm3.086 4.219a.965.965 0 0 0 .334-.747.852.852 0 0 0-.354-.714 3.035 3.035 0 0 0-1.009-.452v2.319a1.952 1.952 0 0 0 1.029-.406z"></path></g></g></g></g></g></g></g><g><g data-name="Group 69795"><g data-name="Group 69790"><g data-name="Group 69789"><g data-name="Group 69788"><g data-name="Group 69787"><path data-name="Path 109949" d="M329.449 618.541s1.242 14.493 20.125 12.837l3.561-5.218-17.723-11.26z" transform="translate(-292.098 -542.016)" style="fill:#2563f6"></path></g></g></g></g><g data-name="Group 69794"><g data-name="Group 69793"><g data-name="Group 69792"><g data-name="Group 69791"><path data-name="Path 109950" d="M54.556 89.908c-5.173 0-9.356-1.316-12.464-3.928a14.967 14.967 0 0 1-5.153-9.42l-.022-.255 6.4-3.912 18.3 11.631-3.913 5.733-.2.017q-1.519.134-2.948.134zM37.791 76.742a14.612 14.612 0 0 0 2.888 6.6c3.378 4.295 9.1 6.238 16.562 5.625l3.209-4.7-17.144-10.9z"></path></g></g></g></g></g><g data-name="Group 69804"><g data-name="Group 69799"><g data-name="Group 69798"><g data-name="Group 69797"><g data-name="Group 69796"><path data-name="Path 109951" d="M171.949 985.722s.663 8.282 8.282 9.773l2.319-3.478-7.45-7.617z" transform="translate(-160.686 -850.313)" style="fill:#ffd423"></path></g></g></g></g><g data-name="Group 69803"><g data-name="Group 69802"><g data-name="Group 69801"><g data-name="Group 69800"><path data-name="Path 109952" d="m19.736 145.641-.271-.053a10.087 10.087 0 0 1-7.29-5.668 13.533 13.533 0 0 1-1.325-4.478l-.024-.3 3.687-1.549 7.885 8.061zm-8.025-9.971a13.272 13.272 0 0 0 1.219 3.907 9.157 9.157 0 0 0 6.425 5.142l1.978-2.966-7.022-7.178z"></path></g></g></g></g></g><g data-name="Group 69816"><g data-name="Group 69811"><g data-name="Group 69807"><g data-name="Group 69806"><g data-name="Group 69805"><path data-name="Path 109953" d="m517.267 460.705 7.428-6.4 6.562-5.266 5.722 6.044s-4.926 12.114-9.656 6.246l-4.349 5.435z" transform="translate(-448.806 -403.63)" style="fill:#fff"></path></g></g></g><g data-name="Group 69810"><g data-name="Group 69809"><g data-name="Group 69808"><path data-name="Path 109954" d="m74.193 63.766-6.33-6.722 7.756-6.683 6.871-5.514 6.167 6.515-.1.247c-.125.307-3.1 7.526-6.833 8.076a3.572 3.572 0 0 1-3.194-1.338zm-5.134-6.659 5.083 5.4 4.374-5.465.324.4a3 3 0 0 0 2.763 1.426c2.918-.429 5.537-6.075 6.083-7.325l-5.273-5.57L76.149 51z"></path></g></g></g></g><g data-name="Group 69815"><g data-name="Group 69814"><g data-name="Group 69813"><g data-name="Group 69812"><path data-name="Path 109955" d="M90.815 53.453c1.1-1.228-.59-2.936-.59-2.936.729.383 1.2.206 1.409-.08 1.181-1.622-2.728-3.239-2.728-3.239 1.127-.064.367-1.01.367-1.01-1.01-1.066-3.645-1.986-5.545-2.541-.477-.383-6.608-5.028-9.155 7.612 0 0 2.462 3.537 5.4.543 0 0 .449-2.358 2.1-1.408a.93.93 0 0 1 .452.9 4.253 4.253 0 0 1-.252 1.089.461.461 0 0 0 .121.511.46.46 0 0 0 .649-.037l1.1-1.235c2.644 2.1 5.893 2.695 6.672 1.831z"></path></g></g></g></g></g><g data-name="Group 69823"><g data-name="Group 69819"><g data-name="Group 69818"><g data-name="Group 69817"><path data-name="Path 109956" d="M162.514 992.6s-3.071 5.908-3.071 8.12v2.054s2.845.632 3.319 2.529h-7.586l-3.477-8.534 5.459-6.87z" transform="translate(-143.79 -854.901)" style="fill:#fff"></path></g></g></g><g data-name="Group 69822"><g data-name="Group 69821"><g data-name="Group 69820"><path data-name="Path 109957" d="M19.502 150.814h-8.394l-3.673-9.016 5.819-7.324 6.031 3.042-.193.372c-.03.058-3.024 5.843-3.024 7.929v1.737c.811.241 2.874 1.014 3.306 2.746zm-7.837-.828h6.69a4.984 4.984 0 0 0-2.792-1.71l.089-.4h-.414v-2.057c0-1.981 2.244-6.584 2.927-7.938l-4.683-2.362-5.1 6.417z"></path></g></g></g></g><g data-name="Group 69827"><g data-name="Group 69826"><g data-name="Group 69825"><g data-name="Group 69824"><path data-name="Path 109958" d="m198.933 674.9-7.454 27.662-22.03 24.68s8.2 1.739 8.779 10.435l22.2-26.005 8.448-13.251z" transform="translate(-158.6 -592.078)" style="fill:#2e2e76"></path></g></g></g></g><g data-name="Group 69834"><g data-name="Group 69830"><g data-name="Group 69829"><g data-name="Group 69828"><path data-name="Path 109959" d="m544.743 590.9 3.313 5.632 12.092 11.263 3.689 1.054a3.154 3.154 0 0 1 1.574 1.035l1.589 1.934a.468.468 0 0 1-.433.759l-6.415-.976a14.45 14.45 0 0 1 .7 1.714.621.621 0 0 1-1 .662l-4.511-3.866L541.6 601l-3.147-4.638z" transform="translate(-466.48 -521.991)" style="fill:#fff"></path></g></g></g><g data-name="Group 69833"><g data-name="Group 69832"><g data-name="Group 69831"><path data-name="Path 109960" d="M93.778 92.552a1.029 1.029 0 0 1-.672-.251l-4.492-3.85-13.795-9.141-3.4-5.01 6.948-6.034 3.535 6.009 11.975 11.154 3.593 1.026a3.552 3.552 0 0 1 1.781 1.171l1.585 1.937a.882.882 0 0 1-.815 1.431l-5.659-.861c.128.3.274.67.4 1.06a1.022 1.022 0 0 1-.407 1.179 1.038 1.038 0 0 1-.577.18zM75.413 78.71l13.7 9.079 4.53 3.883a.2.2 0 0 0 .251.014.191.191 0 0 0 .081-.232 14.1 14.1 0 0 0-.68-1.658l-.357-.715 7.205 1.1a.047.047 0 0 0 .055-.027.047.047 0 0 0-.005-.061l-1.585-1.937a2.726 2.726 0 0 0-1.368-.9l-3.784-1.081-12.209-11.372-3.091-5.254-5.641 4.9z"></path></g></g></g></g><g data-name="Group 69843"><g data-name="Group 69838"><g data-name="Group 69837"><g data-name="Group 69836"><g data-name="Group 69835"><path data-name="Path 109961" d="M489.777 1015.679s5.8 1.491 10.435-5.3l-2.485-2.981-8.779 4.141z" transform="translate(-425.178 -869.503)" style="fill:#ffd423"></path></g></g></g></g><g data-name="Group 69842"><g data-name="Group 69841"><g data-name="Group 69840"><g data-name="Group 69839"><path data-name="Path 109962" d="M66.019 146.729a6.618 6.618 0 0 1-1.523-.152l-.252-.065-.943-4.714 9.362-4.416 2.89 3.468-.176.258a12.146 12.146 0 0 1-7.2 5.367 9.444 9.444 0 0 1-2.158.254zm-1.068-.9c1.118.188 5.675.554 9.563-4.927l-2.077-2.493-8.2 3.866z"></path></g></g></g></g></g><g data-name="Group 69850"><g data-name="Group 69846"><g data-name="Group 69845"><g data-name="Group 69844"><path data-name="Path 109963" d="M516.216 1014.617s.5 4.624 3.985 4.125c1.958-.281 5.633-1.765 7.892.567l-14.334 6.6-3.5-9.421z" transform="translate(-442.96 -875.527)" style="fill:#fff"></path></g></g></g><g data-name="Group 69849"><g data-name="Group 69848"><g data-name="Group 69847"><path data-name="Path 109964" d="m70.567 150.945-3.807-10.249 6.853-2.152.054.5a5.55 5.55 0 0 0 1.584 3.3 2.432 2.432 0 0 0 1.931.461c.356-.051.789-.148 1.248-.25 2.114-.471 5.009-1.117 7 .939l.407.42zm-2.727-9.72 3.192 8.594 13.349-6.146c-1.666-1.224-4.014-.7-5.77-.309-.475.106-.923.206-1.311.261a3.263 3.263 0 0 1-2.558-.628 5.831 5.831 0 0 1-1.816-3.369z"></path></g></g></g></g><g data-name="Group 69854"><g data-name="Group 69853"><g data-name="Group 69852"><g data-name="Group 69851"><path data-name="Path 109965" d="M337.153 625.4s-13.085 8.944-.331 27.993l6.957 12.423 14.079 31.471s4.141-6.294 11.263-5.632c0 0-10.674-23.5-13.251-31.8-2.135-6.88-6.626-28.324-6.626-28.324z" transform="translate(-293.591 -550.777)" style="fill:#2e2e76"></path></g></g></g></g><g data-name="Group 69861"><g data-name="Group 69857"><g data-name="Group 69856"><g data-name="Group 69855"><path data-name="Path 109966" d="M332.449 517.921s14.907 0 19.877 12.754l13.251-15.075 1.988 2.981 7.122-6.46-3.478-9.773s-2.485 1.822-4.141-7.454l-6.917.39a12.924 12.924 0 0 0-8.311 3.665z" transform="translate(-294.601 -441.893)" style="fill:#89efd7"></path></g></g></g><g data-name="Group 69860"><g data-name="Group 69859"><g data-name="Group 69858"><path data-name="Path 109967" d="m57.586 89.567-.247-.635a18.613 18.613 0 0 0-11.53-10.912 25.9 25.9 0 0 0-7.958-1.578h-1.014l20.115-19.678a13.336 13.336 0 0 1 8.578-3.783l7.283-.41.065.361c1.046 5.858 2.4 6.985 2.927 7.2a.643.643 0 0 0 .562-.005l.449-.329 3.757 10.557-7.683 6.968-1.955-2.932zm-18.767-13.91a27.392 27.392 0 0 1 7.247 1.576 19.865 19.865 0 0 1 11.789 10.773L71.021 73.03l2.02 3.03 6.562-5.951-3.246-9.118a1.55 1.55 0 0 1-.864-.093c-1.418-.567-2.55-3.076-3.368-7.46l-6.552.369a12.509 12.509 0 0 0-8.045 3.548z"></path></g></g></g></g><g data-name="Group 69870"><g data-name="Group 69865"><g data-name="Group 69864"><g data-name="Group 69863"><g data-name="Group 69862"><path data-name="Path 109968" d="M467.215 586.649s-3.478-2.816-10.766-1.822c0 0 0 2.319 5.632 3.644 0 0 3.644.329 5.134-1.822z" transform="translate(-398.062 -516.75)" style="fill:#ffd423"></path></g></g></g></g><g data-name="Group 69869"><g data-name="Group 69868"><g data-name="Group 69867"><g data-name="Group 69866"><path data-name="Path 109969" d="M64.566 72.156c-.333 0-.549-.018-.585-.022l-.057-.009c-5.784-1.361-5.951-3.776-5.951-4.047v-.361l.358-.049c7.381-1.007 10.935 1.791 11.083 1.91l.3.242-.219.316c-1.249 1.802-3.78 2.02-4.929 2.02zm-.484-.844c.3.021 3.072.168 4.467-1.321-1-.614-4.18-2.2-9.637-1.562.293.631 1.353 1.978 5.171 2.882z"></path></g></g></g></g></g><g data-name="Group 69877"><g data-name="Group 69873"><g data-name="Group 69872"><g data-name="Group 69871"><path data-name="Path 109970" d="M466.431 584.841a27.183 27.183 0 0 1 4.328.214 13.272 13.272 0 0 1 4.616 1.608l-.994 4.8 10.766 14.079 4.29-.444a2.241 2.241 0 0 1 1 .124l3.275 1.194a.561.561 0 0 1-.106 1.015c-2.033.684-6.291 2.011-8.836 2.057a2.755 2.755 0 0 1-1.93-.745l-15.675-14.64a3.576 3.576 0 0 1-1.129-2.832z" transform="translate(-406.057 -516.929)" style="fill:#fff"></path></g></g></g><g data-name="Group 69876"><g data-name="Group 69875"><g data-name="Group 69874"><path data-name="Path 109971" d="M78.664 92.979a3.154 3.154 0 0 1-2.162-.857L60.83 77.481a3.977 3.977 0 0 1-1.259-3.161l.417-6.81.376-.013a27.288 27.288 0 0 1 4.408.219 13.592 13.592 0 0 1 4.773 1.668l.241.154-1.013 4.9 10.511 13.745 4.059-.42a2.668 2.668 0 0 1 1.183.147l3.344 1.227a.975.975 0 0 1-.185 1.764c-2.249.756-6.4 2.032-8.96 2.079zm-17.9-24.66-.371 6.053a3.152 3.152 0 0 0 1 2.5l15.675 14.64a2.333 2.333 0 0 0 1.639.634c2.536-.047 6.937-1.439 8.712-2.036a.147.147 0 0 0 .049-.251l-3.229-1.177a1.838 1.838 0 0 0-.815-.1l-4.52.468-11.022-14.414.972-4.7a13.527 13.527 0 0 0-4.216-1.408 25.275 25.275 0 0 0-3.873-.21z"></path></g></g></g></g><g data-name="Group 69881"><g data-name="Group 69880"><g data-name="Group 69879"><g data-name="Group 69878"><path data-name="Path 109972" d="M341.792 746.038c-7.548-13.016-9.8-19.543-9.826-19.608l.784-.267c.022.064 2.259 6.527 9.758 19.459z" transform="translate(-294.198 -634.853)" style="fill:#fff"></path></g></g></g></g><g data-name="Group 69885"><g data-name="Group 69884"><g data-name="Group 69883"><g data-name="Group 69882"><path data-name="Rectangle 5778" d="m57.99 67.794 2.65-8.945.794.236-2.65 8.944z"></path></g></g></g></g><g data-name="Group 69889"><g data-name="Group 69888"><g data-name="Group 69887"><g data-name="Group 69886"><path data-name="Rectangle 5779" d="m68.919 69.791 1.657-6.128.799.216-1.657 6.128z"></path></g></g></g></g><g data-name="Group 69893"><g data-name="Group 69892"><g data-name="Group 69891"><g data-name="Group 69890"><path data-name="Rectangle 5780" d="m70.199 73.965 3.606-4.328.636.53-3.606 4.328z"></path></g></g></g></g></g><g data-name="Floor line"><g data-name="Group 69897"><g data-name="Group 69896"><g data-name="Group 69895"><g data-name="Group 69894"><path data-name="Rectangle 5781" style="fill:#6e6e6e" d="M0 0h227.255v.994H0z" transform="translate(0 150.069)"></path></g></g></g></g></g></g></svg>