<svg xmlns="http://www.w3.org/2000/svg" width="219.104" height="152.741" viewBox="0 0 219.104 152.741"><g data-name="Group 69220"><g data-name="Group 69220"><path data-name="Rectangle 5689" transform="translate(61.793 28.842)" style="fill:#fff" d="M0 0h126.53v103.43H0z"></path><path data-name="Path 109796" d="M550.27 459.308h127.707V354.7H550.27zm126.53-1.177H551.447V355.878H676.8z" transform="translate(-489.066 -326.447)" style="fill:#f5b3a5"></path></g><g data-name="Group 69221"><path data-name="Rectangle 5690" transform="translate(76.881 92.836)" style="fill:#89efd7" d="M0 0h7.908v20.187H0z"></path></g><g data-name="Group 69222"><path data-name="Rectangle 5691" transform="translate(115.381 92.836)" style="fill:#89efd7" d="M0 0h7.908v20.187H0z"></path></g><g data-name="Group 69223"><path data-name="Rectangle 5692" transform="translate(128.7 85.24)" style="fill:#89efd7" d="M0 0h7.908v27.782H0z"></path></g><g data-name="Group 69224"><path data-name="Rectangle 5693" transform="translate(166.159 85.24)" style="fill:#89efd7" d="M0 0h7.908v27.782H0z"></path></g><g data-name="Group 69225"><path data-name="Rectangle 5694" transform="translate(154.297 71.088)" style="fill:#89efd7" d="M0 0h7.908v41.934H0z"></path></g><g data-name="Group 69226"><path data-name="Rectangle 5695" transform="translate(141.602 59.434)" style="fill:#89efd7" d="M0 0h7.908v53.588H0z"></path></g><g data-name="Group 69227"><path data-name="Rectangle 5696" transform="translate(89.575 96.686)" style="fill:#89efd7" d="M0 0h7.908v16.337H0z"></path></g><g data-name="Group 69228"><path data-name="Rectangle 5697" transform="translate(102.686 104.386)" style="fill:#89efd7" d="M0 0h7.908v8.636H0z"></path></g><g data-name="Group 69229"><path data-name="Rectangle 5698" style="fill:#2e2e76" d="M0 0h107.8v1.373H0z" transform="translate(71.158 116.082)"></path></g><g data-name="Group 69230"><path data-name="Path 109797" d="M803.853 541.142h.158c14.779-.036 21.125-18.23 22.718-23.806 7.538-26.383 14.75-25.54 14.82-25.528l.273-1.345c-.236-.051-2.39-.4-5.48 2.824-3.945 4.121-7.623 12.085-10.934 23.672-1.526 5.342-7.581 22.776-21.4 22.81h-.188c-5.541 0-9.458-.663-18.211-11.6a10.49 10.49 0 0 0-8.688-4.211l.072 1.371a9.162 9.162 0 0 1 7.544 3.7c8.981 11.221 13.325 12.113 19.316 12.113z" transform="translate(-697.369 -435.549)" style="fill:#2e2e76"></path></g><g data-name="Group 69231" transform="translate(142.123 51.526)"><circle data-name="Ellipse 6222" cx="3.434" cy="3.434" style="fill:#2563f6" r="3.434"></circle></g><g data-name="Group 69232" transform="translate(103.623 101.576)"><circle data-name="Ellipse 6223" cx="2.966" cy="2.966" style="fill:#2563f6" r="2.966"></circle></g><g data-name="Group 69233" transform="translate(79.472 50.372)"><circle data-name="Ellipse 6224" cx="9.015" cy="9.015" style="fill:#2563f6" r="9.015"></circle></g><g data-name="Group 69234"><path data-name="Path 109798" d="M1076.289 527.469V526.1a12.694 12.694 0 0 1-12.68-12.68h-1.373a14.069 14.069 0 0 0 14.053 14.049z" transform="translate(-987.802 -454.029)" style="fill:#2e2e76"></path></g><g data-name="Group 69235"><path data-name="Path 109799" d="M1003.271 455.824h1.373a14.069 14.069 0 0 0-14.053-14.053v1.373a12.7 12.7 0 0 1 12.68 12.68z" transform="translate(-902.104 -396.438)" style="fill:#2e2e76"></path></g><g data-name="Group 69236"><path data-name="Path 109800" d="m1108.63 460.675.983-.958-12.332-12.657h-35.721v1.373h35.14z" transform="translate(-1020.994 -400.689)" style="fill:#2e2e76"></path></g><g data-name="Group 69237" transform="translate(49.721 39.294)"><circle data-name="Ellipse 6225" cx="2.075" cy="2.075" transform="rotate(-103.282 2.452 2.119)" style="fill:#2563f6" r="2.075"></circle></g><g data-name="Group 69238" transform="translate(42.579 38.856)"><circle data-name="Ellipse 6226" cx="2.075" cy="2.075" r="2.075" transform="rotate(-135 2.683 2.327)" style="fill:#89efd7"></circle></g><g data-name="Group 69242"><g data-name="Group 69239"><path data-name="Rectangle 5699" transform="translate(106.156 93.219)" style="fill:#f5b3a5" d="M0 0h1.177v1.177H0z"></path></g><g data-name="Group 69240"><path data-name="Path 109801" d="M974.151 585.56h1.177v-2.221h-1.177zm0-4.443h1.177V578.9h-1.177zm0-4.443h1.177v-2.221h-1.177zm-.6-3.767.878-.784-1.48-1.657-.878.784zm-2.959-3.314.878-.784-1.47-1.656-.878.784zm-2.959-3.314.878-.784-1.479-1.657-.878.784z" transform="translate(-867.996 -494.562)" style="fill:#f5b3a5"></path></g><g data-name="Group 69241"><path data-name="Rectangle 5700" transform="rotate(-131.761 63.655 12.558)" style="fill:#f5b3a5" d="M0 0h1.177v1.177H0z"></path></g></g><g data-name="Group 69243"><path data-name="Rectangle 5701" style="fill:#2e2e76" d="M0 0h8.22v.981H0z" transform="translate(48.578 51.244)"></path></g><g data-name="Group 69244"><path data-name="Rectangle 5702" style="fill:#2e2e76" d="M0 0h16.232v.981H0z" transform="translate(40.566 55.094)"></path></g><g data-name="Group 69245"><path data-name="Rectangle 5703" style="fill:#2e2e76" d="M0 0h16.232v.981H0z" transform="translate(40.566 59.048)"></path></g><g data-name="Group 69246"><path data-name="Path 109802" d="M768.824 404.76H770v-2.354h-1.177zm0-4.708H770V397.7h-1.177zm0-4.708H770v-2.354h-1.177zm0-4.708H770v-2.354h-1.177z" transform="translate(-623.96 -353.442)" style="fill:#f5b3a5"></path></g><g data-name="Group 69247"><path data-name="Rectangle 5704" transform="translate(130.338 13.006)" style="fill:#fff" d="M0 0h29.447v22.033H0z"></path><path data-name="Path 109803" d="M695.752 297.18h30.624v-23.21h-30.624zM725.2 296h-28.27v-20.853h28.27z" transform="translate(-566.002 -261.552)" style="fill:#f5b3a5"></path></g><g data-name="Group 69251"><g data-name="Group 69248"><path data-name="Rectangle 5705" style="fill:#2e2e76" d="M0 0h9.801v.981H0z" transform="translate(144.938 19.631)"></path></g><g data-name="Group 69249"><path data-name="Rectangle 5706" style="fill:#2e2e76" d="M0 0h19.354v.981H0z" transform="translate(135.385 23.481)"></path></g><g data-name="Group 69250"><path data-name="Rectangle 5707" style="fill:#2e2e76" d="M0 0h19.354v.981H0z" transform="translate(135.385 27.435)"></path></g></g><g data-name="Chart"><g data-name="Group 69252"><path data-name="Rectangle 5708" transform="translate(127.965 .588)" style="fill:#fff" d="M0 0h44.521v36.607H0z"></path><path data-name="Path 109804" d="M936.571 248.445h-45.7v-37.784h45.7zm-44.521-1.177h43.344v-35.43H892.05z" transform="translate(-763.496 -210.661)" style="fill:#f5b3a5"></path></g><g data-name="Group 69253"><path data-name="Rectangle 5709" style="fill:#89efd7" d="M0 0h39.654v.785H0z" transform="translate(130.299 23.969)"></path></g><g data-name="Group 69254"><path data-name="Rectangle 5710" style="fill:#89efd7" d="M0 0h39.654v.785H0z" transform="translate(130.299 14.087)"></path></g><g data-name="Group 69255"><path data-name="Rectangle 5711" style="fill:#89efd7" d="M0 0h39.654v.785H0z" transform="translate(130.299 3.656)"></path></g><g data-name="Group 69256"><path data-name="Rectangle 5712" style="fill:#2563f6" d="M0 0h6.725v27.176H0z" transform="translate(163.308 7.342)"></path></g><g data-name="Group 69257"><path data-name="Rectangle 5713" style="fill:#2563f6" d="M0 0h6.725v20.725H0z" transform="translate(155.21 13.793)"></path></g><g data-name="Group 69258"><path data-name="Rectangle 5714" style="fill:#2563f6" d="M0 0h6.725v10.706H0z" transform="translate(147.387 23.813)"></path></g><g data-name="Group 69259"><path data-name="Rectangle 5715" style="fill:#2563f6" d="M0 0h6.725v13.108H0z" transform="translate(139.426 21.411)"></path></g><g data-name="Group 69260"><path data-name="Rectangle 5716" style="fill:#2563f6" d="M0 0h6.725v5.284H0z" transform="translate(131.465 29.234)"></path></g><g data-name="Group 69262"><g data-name="Group 69261"><path data-name="Path 109805" d="m928.652 321.91-.359-1.025 7.956-2.791 7.905 1.34 7.828-10.712 8.3 1.574-.2 1.067-7.624-1.446-7.819 10.7-8.291-1.405z" transform="translate(-793.576 -289.487)" style="fill:#2e2e76"></path></g></g><g data-name="Group 69263"><path data-name="Path 109806" d="M1088.225 316.055a.789.789 0 1 1-.789-.789.789.789 0 0 1 .789.789z" transform="translate(-920.868 -294.747)" style="fill:#fff"></path></g><g data-name="Group 69264" transform="translate(157.818 19.146)"><circle data-name="Ellipse 6227" cx=".789" cy=".789" r=".789" style="fill:#fff"></circle></g><g data-name="Group 69265" transform="translate(149.995 29.715)"><circle data-name="Ellipse 6228" cx=".789" cy=".789" r=".789" style="fill:#fff"></circle></g><g data-name="Group 69266" transform="translate(142.034 28.342)"><circle data-name="Ellipse 6229" cx=".789" cy=".789" r=".789" style="fill:#fff"></circle></g><g data-name="Group 69267"><path data-name="Path 109807" d="M926.589 369.934a.789.789 0 1 1-.789-.789.789.789 0 0 1 .789.789z" transform="translate(-790.937 -338.058)" style="fill:#fff"></path></g></g><g><g data-name="Group 69268"><path data-name="Path 109808" d="M346.362 837.718s-6.868 7.076-26.43 5.411c0 0-14.151-1.665-18.105-6.868l2.095-6.971 40.567.728z" transform="translate(-289.994 -707.944)" style="fill:#f5b3a5"></path></g><g data-name="Group 69269"><path data-name="Path 109809" d="M315.089 825.046s1.457 9.779 4.994 15.113l2.81 16.624h18.626l-4.162-31.737z" transform="translate(-300.654 -704.532)" style="fill:#2e2e76"></path></g><g data-name="Group 69270"><path data-name="Path 109810" d="M326.759 828.672a22.291 22.291 0 0 0 10.2 14.4l7.18 16.624h25.181l-8.637-30.314z" transform="translate(-310.035 -707.447)" style="fill:#2e2e76"></path></g><g data-name="Group 69271"><path data-name="Path 109811" d="m341.29 859.131-7.215-16.555a21.79 21.79 0 0 1-10.3-14.658l.961-.194a21.037 21.037 0 0 0 9.937 14.06l.158.08 7.355 16.875z" transform="translate(-307.639 -706.685)" style="fill:#fff"></path></g><g data-name="Group 69274"><g data-name="Group 69272"><path data-name="Path 109812" d="m386.29 495.805 1.014-14.141 1.542-12.177 12.13.538s7.118 17.7-3.794 16.343l.133 7.875z" transform="translate(-357.889 -418.717)" style="fill:#fff"></path><path data-name="Path 109813" d="m383.575 494.286 1.06-14.774 1.6-12.625 12.9.572.118.293c.179.446 4.356 10.977 1.037 15.287a5.179 5.179 0 0 1-4.786 1.78l.131 7.759zm2.034-14.664-.969 13.522 10-1.416-.135-8.007.56.07c2.064.257 3.56-.2 4.448-1.351 2.7-3.5-.412-12.31-1.058-14.03l-11.358-.5z" transform="translate(-355.707 -416.627)" style="fill:#2e2e76"></path></g><g data-name="Group 69273"><path data-name="Path 109814" d="M389.319 444.441c-.095-2.4-3.6-2.481-3.6-2.481 1.152-.337 1.469-1 1.4-1.512-.406-2.9-6.145-.631-6.145-.631 1.118-1.21-.639-1.432-.639-1.432-2.14-.093-5.837 1.614-8.392 2.957-.889.081-12.03 1.427-1.882 17.267 0 0 6.168 1.213 6.218-4.909 0 0-1.92-2.929.776-3.606a1.356 1.356 0 0 1 1.387.485 6.2 6.2 0 0 1 .84 1.4.671.671 0 0 0 .646.413.671.671 0 0 0 .644-.7l-.1-2.413c4.898-.479 8.914-3.141 8.847-4.838z" transform="translate(-341.436 -393.713)" style="fill:#2e2e76"></path></g></g><g data-name="Group 69275"><path data-name="Path 109815" d="M654.831 527.452s1.873.416 5.2 5.827c0 0 1.665 4.37.416 6.867l-3.122 1.873-6.451-9.989z" transform="translate(-570.576 -465.312)" style="fill:#2e2e76"></path></g><g data-name="Group 69276"><path data-name="Path 109816" d="m653.495 488.608 19.834-13.948a.692.692 0 0 1 1.085.661c-.178 1.239-.989 3.242-3.86 5.71 0 0 2.642 2.416 1.234 5.39a12.909 12.909 0 0 1-5.309 2.292l-8.711 8.061z" transform="translate(-572.68 -422.773)" style="fill:#fff"></path><path data-name="Path 109817" d="M655.758 495.25a.478.478 0 0 1-.083-.007.491.491 0 0 1-.351-.256l-4.273-8.166a.49.49 0 0 1 .153-.629l19.834-13.948a1.183 1.183 0 0 1 1.852 1.132c-.183 1.269-.971 3.263-3.645 5.677a5.159 5.159 0 0 1 .977 5.564.491.491 0 0 1-.141.176 13.342 13.342 0 0 1-5.386 2.365l-8.6 7.962a.49.49 0 0 1-.337.13zm-3.639-8.5 3.776 7.217 8.241-7.626a.489.489 0 0 1 .256-.124 12.512 12.512 0 0 0 4.992-2.125c1.126-2.568-1.148-4.689-1.171-4.711a.491.491 0 0 1 .011-.734c2.751-2.366 3.527-4.247 3.694-5.409a.189.189 0 0 0-.093-.2.2.2 0 0 0-.224.007z" transform="translate(-570.67 -420.758)" style="fill:#2e2e76"></path></g><g data-name="Group 69277"><path data-name="Path 109818" d="M356.993 540.251a9.829 9.829 0 0 1-5.1-4.682 11.651 11.651 0 0 1-.416-8.116l-21.851 16.232-22.476-8.532h-10.624a4.849 4.849 0 0 0-2.963 1.011l-5.21 4.023a11.909 11.909 0 0 0-2.863 3.18 206.393 206.393 0 0 0-10.805 19.464c-1.018 2.263-4.109 12.021 6.857 12.547a5268.59 5268.59 0 0 0-2.695 18.253s5.6-5.848 18.938-5.411c12.695.416 25.805 6.868 25.805 6.868l-5.723-34.234 11.3.517a11.112 11.112 0 0 0 8.028-2.92z" transform="translate(-267.223 -465.312)" style="fill:#2563f6"></path></g><g data-name="Group 69278"><path data-name="Rectangle 5717" transform="rotate(-77.4 75.502 46.3)" style="fill:#2e2e76" d="M0 0h20.044v.981H0z"></path></g><g data-name="Group 69279"><path data-name="Rectangle 5718" transform="rotate(-83.906 74.703 23.282)" style="fill:#2e2e76" d="M0 0h.981v10.181H0z"></path></g></g><g><g data-name="Group 69280"><path data-name="Rectangle 5719" style="fill:#6e6e6e" d="M0 0h219.104v.981H0z" transform="translate(0 151.76)"></path></g></g></g></svg>